<?xml version="1.0" standalone="no"?>
<!DOCTYPE svg PUBLIC "-//W3C//DTD SVG 1.1//EN" "http://www.w3.org/Graphics/SVG/1.1/DTD/svg11.dtd" >
<svg>
<metadata>
Created by FontForge 20090622 at Thu Oct  3 11:42:01 2019
 By deploy user
Copyright (c) 2017 by DejaVu fonts team, BPG. All rights reserved.
</metadata>
<defs>
<font id="BPG2017DejaVuSans" horiz-adv-x="1040" >
  <font-face 
    font-family="BPG 2017 DejaVu Sans"
    font-weight="400"
    font-stretch="normal"
    units-per-em="2048"
    panose-1="2 11 6 3 3 8 4 2 2 4"
    ascent="1556"
    descent="-492"
    x-height="1288"
    cap-height="1717"
    bbox="-106 -555 2316 1884"
    underline-thickness="90"
    underline-position="-85"
    unicode-range="U+000D-U+F441"
  />
<missing-glyph horiz-adv-x="1039" 
d="M102 -362v1806h824v-1806h-824zM217 -248h595v1577h-595v-1577z" />
    <glyph glyph-name=".notdef" horiz-adv-x="1039" 
d="M102 -362v1806h824v-1806h-824zM217 -248h595v1577h-595v-1577z" />
    <glyph glyph-name="NULL" horiz-adv-x="0" 
 />
    <glyph glyph-name="NULL" horiz-adv-x="0" 
 />
    <glyph glyph-name="nonmarkingreturn" unicode="&#xd;" horiz-adv-x="682" 
 />
    <glyph glyph-name="space" unicode=" " horiz-adv-x="651" 
 />
    <glyph glyph-name="exclam" unicode="!" horiz-adv-x="821" 
d="M309 292h203v-292h-203v292zM309 1717h203v-753l-20 -411h-162l-21 411v753z" />
    <glyph glyph-name="quotedbl" unicode="&#x22;" horiz-adv-x="942" 
d="M367 1737v-638h-170v638h170zM745 1737v-638h-170v638h170z" />
    <glyph glyph-name="numbersign" unicode="#" horiz-adv-x="1716" 
d="M1047 1036h-291l-84 -384h293zM897 1690l-104 -477h292l105 477h160l-103 -477h312v-177h-351l-82 -384h318v-176h-357l-104 -476h-160l103 476h-293l-103 -476h-161l104 476h-315v176h352l84 384h-322v177h361l102 477h162z" />
    <glyph glyph-name="dollar" unicode="$" horiz-adv-x="1303" 
d="M694 -146h-99l-1 162q-105 2 -209.5 29.5t-209.5 81.5v217q101 -78 205 -117t215 -40v549q-220 43 -320 146.5t-100 283.5q0 197 108.5 310t311.5 129v135h99v-130q93 -6 179.5 -24.5t168.5 -51.5v-210q-82 50 -169 78t-179 33v-514q226 -42 332.5 -150t106.5 -297
q0 -203 -113 -320t-326 -136v-164zM595 942v494q-116 -16 -176.5 -79.5t-60.5 -169.5q0 -104 56 -161.5t181 -83.5zM694 712v-521q127 20 191 86.5t64 173.5q0 106 -61 169t-194 92z" />
    <glyph glyph-name="percent" unicode="%" horiz-adv-x="1946" 
d="M1489 756q-87 0 -136.5 -85.5t-49.5 -236.5q0 -150 49.5 -235.5t136.5 -85.5q85 0 134.5 85.5t49.5 235.5t-49.5 236t-134.5 86zM1489 902q158 0 251 -126.5t93 -341.5q0 -216 -93.5 -341.5t-250.5 -125.5q-160 0 -253 125.5t-93 341.5t93.5 342t252.5 126zM457 1602
q-86 0 -135.5 -85.5t-49.5 -235.5q0 -152 49 -237t136 -85t136.5 85t49.5 237q0 148 -50 234.5t-136 86.5zM1360 1748h160l-934 -1781h-160zM457 1748q158 0 252 -126t94 -341q0 -217 -93.5 -342.5t-252.5 -125.5t-251.5 126t-92.5 342q0 214 93 340.5t251 126.5z" />
    <glyph glyph-name="ampersand" unicode="&#x26;" horiz-adv-x="1597" 
d="M498 923q-91 -93 -133.5 -185.5t-42.5 -193.5q0 -168 106 -279.5t266 -111.5q95 0 178 36t156 110zM639 1052l508 -598q59 103 92 219.5t39 247.5h186q-12 -152 -64 -300t-145 -293l279 -328h-252l-143 169q-104 -102 -218 -152t-245 -50q-241 0 -394 158t-153 405
q0 147 67 276.5t201 243.5q-48 72 -73 144t-25 141q0 186 111 299.5t295 113.5q83 0 165.5 -20.5t167.5 -62.5v-209q-87 54 -166 82t-147 28q-105 0 -170.5 -63.5t-65.5 -165.5q0 -58 29.5 -117.5t120.5 -167.5z" />
    <glyph glyph-name="quotesingle" unicode="'" horiz-adv-x="563" 
d="M367 1737v-638h-170v638h170z" />
    <glyph glyph-name="parenleft" unicode="(" horiz-adv-x="799" 
d="M635 1787q-134 -264 -199 -523t-65 -525q0 -265 65.5 -525.5t198.5 -524.5h-160q-150 271 -224.5 532t-74.5 518t74 517t225 531h160z" />
    <glyph glyph-name="parenright" unicode=")" horiz-adv-x="799" 
d="M164 1787h160q150 -271 224.5 -531t74.5 -517t-74.5 -518t-224.5 -532h-160q133 264 198.5 524.5t65.5 525.5q0 266 -65.5 525t-198.5 523z" />
    <glyph glyph-name="asterisk" unicode="*" horiz-adv-x="1024" 
d="M963 1434l-359 -223l359 -224l-58 -113l-336 233v-433h-114v433l-336 -233l-58 113l359 224l-359 223l58 114l336 -234v434h114v-434l336 234z" />
    <glyph glyph-name="plus" unicode="+" horiz-adv-x="1716" 
d="M942 1497v-641h557v-195h-557v-641h-168v641h-557v195h557v641h168z" />
    <glyph glyph-name="comma" unicode="," horiz-adv-x="651" 
d="M240 292h211v-198l-164 -368h-129l82 368v198z" />
    <glyph glyph-name="hyphen" unicode="-" horiz-adv-x="949" 
d="M100 839h749v-198h-749v198z" />
    <glyph glyph-name="period" unicode="." horiz-adv-x="651" 
d="M219 292h211v-292h-211v292z" />
    <glyph glyph-name="slash" unicode="/" horiz-adv-x="690" 
d="M520 1717h170l-520 -1935h-170z" />
    <glyph glyph-name="zero" unicode="0" horiz-adv-x="1303" 
d="M651 1564q-156 0 -234.5 -176.5t-78.5 -530.5q0 -353 78.5 -529.5t234.5 -176.5q157 0 235.5 176.5t78.5 529.5q0 354 -78.5 530.5t-235.5 176.5zM651 1748q251 0 383.5 -228.5t132.5 -662.5t-132.5 -662t-383.5 -228t-383.5 228t-132.5 662t132.5 662.5t383.5 228.5z
" />
    <glyph glyph-name="one" unicode="1" horiz-adv-x="1303" 
d="M254 195h330v1310l-359 -82v211l357 83h202v-1522h330v-195h-860v195z" />
    <glyph glyph-name="two" unicode="2" horiz-adv-x="1303" 
d="M393 195h705v-195h-948v195l313.5 367.5t249.5 297.5q97 126 135.5 212.5t38.5 170.5q0 137 -83.5 223t-217.5 86q-95 0 -200.5 -37.5t-225.5 -114.5v234q122 56 228 85t194 29q232 0 370 -133.5t138 -356.5q0 -106 -34.5 -200.5t-125.5 -223.5q-25 -34 -159 -193z" />
    <glyph glyph-name="three" unicode="3" horiz-adv-x="1303" 
d="M831 926q145 -36 226.5 -148.5t81.5 -278.5q0 -254 -152 -393t-432 -139q-94 0 -193.5 21t-205.5 64v224q84 -56 184 -85t209 -29q190 0 289.5 86.5t99.5 250.5q0 152 -92.5 237.5t-257.5 85.5h-174v191h182q149 0 228 68.5t79 197.5q0 132 -81.5 202.5t-233.5 70.5
q-83 0 -178 -20.5t-209 -64.5v207q115 37 215.5 55.5t189.5 18.5q230 0 364 -120t134 -325q0 -143 -71 -241t-202 -136z" />
    <glyph glyph-name="four" unicode="4" horiz-adv-x="1303" 
d="M774 1515l-510 -917h510v917zM721 1717h254v-1119h213v-193h-213v-405h-201v405h-674v224z" />
    <glyph glyph-name="five" unicode="5" horiz-adv-x="1303" 
d="M221 1717h793v-196h-608v-420q44 17 88 25.5t88 8.5q250 0 396 -157.5t146 -426.5q0 -277 -150 -430.5t-423 -153.5q-94 0 -191.5 18t-201.5 55v234q90 -57 186 -84.5t203 -27.5q173 0 274 104.5t101 284.5q0 179 -101 284t-274 105q-81 0 -161.5 -21t-164.5 -65v863z
" />
    <glyph glyph-name="six" unicode="6" horiz-adv-x="1303" 
d="M676 951q-136 0 -215.5 -107t-79.5 -293q0 -185 79.5 -292.5t215.5 -107.5t215.5 107.5t79.5 292.5q0 186 -79.5 293t-215.5 107zM1077 1679v-212q-76 42 -153.5 63.5t-153.5 21.5q-200 0 -305.5 -155t-120.5 -469q59 100 148 153.5t196 53.5q225 0 355.5 -157
t130.5 -427q0 -265 -136 -424.5t-362 -159.5q-259 0 -396 228t-137 662q0 407 168 649t451 242q76 0 153.5 -17.5t161.5 -51.5z" />
    <glyph glyph-name="seven" unicode="7" horiz-adv-x="1303" 
d="M168 1717h960v-99l-542 -1618h-211l510 1521h-717v196z" />
    <glyph glyph-name="eight" unicode="8" horiz-adv-x="1303" 
d="M651 815q-144 0 -226.5 -88.5t-82.5 -243.5t82.5 -243.5t226.5 -88.5t227 89t83 243q0 155 -82.5 243.5t-227.5 88.5zM449 914q-130 37 -202.5 139.5t-72.5 249.5q0 206 127.5 325.5t349.5 119.5q223 0 350 -119.5t127 -325.5q0 -147 -72.5 -249.5t-201.5 -139.5
q146 -39 227.5 -153t81.5 -278q0 -250 -132.5 -383t-379.5 -133t-379.5 133t-132.5 383q0 164 82 278t228 153zM375 1281q0 -133 72.5 -208t203.5 -75q130 0 203.5 75t73.5 208t-73.5 208t-203.5 75q-131 0 -203.5 -75t-72.5 -208z" />
    <glyph glyph-name="nine" unicode="9" horiz-adv-x="1303" 
d="M225 36v211q76 -41 154 -63t153 -22q200 0 305.5 154.5t120.5 470.5q-58 -99 -147 -152t-197 -53q-224 0 -354.5 156t-130.5 426q0 264 136 424t362 160q259 0 395.5 -228.5t136.5 -662.5q0 -406 -167.5 -648t-450.5 -242q-76 0 -154 17t-162 52zM627 764
q136 0 215.5 106.5t79.5 293.5q0 185 -79.5 292.5t-215.5 107.5t-215.5 -107.5t-79.5 -292.5q0 -187 79.5 -293.5t215.5 -106.5z" />
    <glyph glyph-name="colon" unicode=":" horiz-adv-x="690" 
d="M240 292h211v-292h-211v292zM240 1218h211v-292h-211v292z" />
    <glyph glyph-name="semicolon" unicode=";" horiz-adv-x="690" 
d="M240 1218h211v-292h-211v292zM240 292h211v-198l-164 -368h-129l82 368v198z" />
    <glyph glyph-name="less" unicode="&#x3c;" horiz-adv-x="1716" 
d="M1499 1159l-1032 -422l1032 -420v-209l-1282 535v191l1282 534v-209z" />
    <glyph glyph-name="equal" unicode="=" horiz-adv-x="1716" 
d="M217 1069h1282v-193h-1282v193zM217 600h1282v-195h-1282v195z" />
    <glyph glyph-name="greater" unicode="&#x3e;" horiz-adv-x="1716" 
d="M217 1159v209l1282 -534v-191l-1282 -535v209l1030 420z" />
    <glyph glyph-name="question" unicode="?" horiz-adv-x="1087" 
d="M391 292h203v-292h-203v292zM588 461h-191v177q0 116 28 191t118 174l90 102q57 61 82.5 115t25.5 111q0 102 -65.5 165t-173.5 63q-79 0 -168.5 -40t-186.5 -117v216q94 66 190.5 98t199.5 32q184 0 295.5 -111.5t111.5 -294.5q0 -87 -36 -166t-126 -178l-88 -99
q-47 -54 -66.5 -84.5t-27.5 -58.5q-6 -25 -9 -59.5t-3 -93.5v-142z" />
    <glyph glyph-name="at" unicode="@" horiz-adv-x="2048" 
d="M762 698q0 -165 71 -258.5t195 -93.5q123 0 193.5 94t70.5 258q0 161 -72 255.5t-194 94.5q-121 0 -192.5 -94t-71.5 -256zM1307 354q-60 -89 -137.5 -131t-180.5 -42q-172 0 -279.5 143.5t-107.5 373.5t108 373.5t279 143.5q103 0 181 -43t137 -131v151h143v-846
q146 25 228.5 153t82.5 332q0 123 -31.5 231t-95.5 200q-104 151 -253.5 231t-325.5 80q-123 0 -236 -37.5t-209 -111.5q-157 -117 -245.5 -307.5t-88.5 -412.5q0 -182 57.5 -342t166.5 -282q105 -120 243 -182.5t295 -62.5q129 0 253.5 50t228.5 143l90 -127
q-125 -112 -272.5 -171t-299.5 -59q-185 0 -349 75t-292 219t-195 333t-67 406q0 210 68 399.5t194 333.5q129 146 298 223.5t358 77.5q212 0 393.5 -100t304.5 -284q75 -113 114.5 -245t39.5 -273q0 -303 -159 -478t-439 -181v177z" />
    <glyph glyph-name="A" unicode="A" horiz-adv-x="1401" 
d="M700 1488l-274 -854h549zM586 1717h229l569 -1717h-210l-136 440h-673l-136 -440h-213z" />
    <glyph glyph-name="B" unicode="B" horiz-adv-x="1405" 
d="M403 820v-629h324q163 0 241.5 77.5t78.5 237.5q0 161 -78.5 237.5t-241.5 76.5h-324zM403 1526v-517h299q148 0 220.5 63.5t72.5 194.5q0 130 -72.5 194.5t-220.5 64.5h-299zM201 1717h516q231 0 356 -110.5t125 -313.5q0 -158 -64 -251t-188 -116q149 -37 231.5 -154
t82.5 -291q0 -230 -136 -355.5t-387 -125.5h-536v1717z" />
    <glyph glyph-name="C" unicode="C" horiz-adv-x="1430" 
d="M1319 1585v-245q-102 109 -217.5 163t-245.5 54q-256 0 -392 -180t-136 -520t136 -519.5t392 -179.5q130 0 245.5 54t217.5 163v-243q-106 -83 -224.5 -124t-250.5 -41q-339 0 -534 238.5t-195 651.5q0 414 195 652.5t534 238.5q134 0 252.5 -41t222.5 -122z" />
    <glyph glyph-name="D" unicode="D" horiz-adv-x="1577" 
d="M403 1526v-1335h244q309 0 452.5 161t143.5 508q0 345 -143.5 505.5t-452.5 160.5h-244zM201 1717h415q434 0 637 -207.5t203 -649.5q0 -444 -204 -652t-636 -208h-415v1717z" />
    <glyph glyph-name="E" unicode="E" horiz-adv-x="1294" 
d="M201 1717h944v-196h-742v-508h711v-195h-711v-623h760v-195h-962v1717z" />
    <glyph glyph-name="F" unicode="F" horiz-adv-x="1178" 
d="M201 1717h858v-196h-656v-506h592v-195h-592v-820h-202v1717z" />
    <glyph glyph-name="G" unicode="G" horiz-adv-x="1587" 
d="M1219 245v461h-330v191h530v-737q-117 -96 -258 -144.5t-301 -48.5q-350 0 -547.5 235t-197.5 655q0 421 197.5 656t547.5 235q146 0 277.5 -41.5t242.5 -121.5v-248q-112 110 -238 165t-265 55q-274 0 -411.5 -176t-137.5 -524t137.5 -523.5t411.5 -175.5q107 0 191 21
t151 66z" />
    <glyph glyph-name="H" unicode="H" horiz-adv-x="1540" 
d="M201 1717h202v-704h734v704h202v-1717h-202v818h-734v-818h-202v1717z" />
    <glyph glyph-name="I" unicode="I" horiz-adv-x="604" 
d="M201 1717h202v-1717h-202v1717z" />
    <glyph glyph-name="J" unicode="J" horiz-adv-x="604" 
d="M201 1717h202v-1597q0 -311 -102.5 -451t-329.5 -140h-77v195h63q134 0 189 86.5t55 309.5v1597z" />
    <glyph glyph-name="K" unicode="K" horiz-adv-x="1343" 
d="M201 1717h202v-726l670 726h260l-741 -800l794 -917h-266l-717 827v-827h-202v1717z" />
    <glyph glyph-name="L" unicode="L" horiz-adv-x="1141" 
d="M201 1717h202v-1522h727v-195h-929v1717z" />
    <glyph glyph-name="M" unicode="M" horiz-adv-x="1767" 
d="M201 1717h301l381 -1168l383 1168h301v-1717h-197v1508l-385 -1178h-203l-385 1178v-1508h-196v1717z" />
    <glyph glyph-name="N" unicode="N" horiz-adv-x="1532" 
d="M201 1717h272l662 -1436v1436h196v-1717h-272l-662 1436v-1436h-196v1717z" />
    <glyph glyph-name="O" unicode="O" horiz-adv-x="1612" 
d="M813 1557q-220 0 -349.5 -188.5t-129.5 -514.5q0 -324 129.5 -512.5t349.5 -188.5t348.5 188.5t128.5 512.5q0 326 -128.5 514.5t-348.5 188.5zM813 1746q314 0 502 -242t188 -650q0 -406 -188 -648t-502 -242q-315 0 -503.5 241.5t-188.5 648.5q0 408 188.5 650
t503.5 242z" />
    <glyph glyph-name="P" unicode="P" horiz-adv-x="1235" 
d="M403 1526v-645h254q141 0 218 84t77 239q0 154 -77 238t-218 84h-254zM201 1717h456q251 0 379.5 -130.5t128.5 -382.5q0 -254 -128.5 -384t-379.5 -130h-254v-690h-202v1717z" />
    <glyph glyph-name="Q" unicode="Q" horiz-adv-x="1612" 
d="M807 1559q-220 0 -349.5 -188.5t-129.5 -513.5t129.5 -513.5t349.5 -188.5t348.5 188.5t128.5 513.5t-128.5 513.5t-348.5 188.5zM1090 31l266 -335h-244l-221 275l-50.5 -3t-33.5 -1q-315 0 -503.5 242t-188.5 648q0 407 188.5 649t503.5 242q314 0 502 -242t188 -649
q0 -299 -104.5 -512t-302.5 -314z" />
    <glyph glyph-name="R" unicode="R" horiz-adv-x="1423" 
d="M909 805q65 -25 126.5 -108t123.5 -228l205 -469h-217l-191 440q-74 173 -143.5 229.5t-189.5 56.5h-220v-726h-202v1717h456q256 0 382 -123t126 -372q0 -162 -65.5 -269t-190.5 -148zM403 1526v-609h254q146 0 220.5 77.5t74.5 227.5q0 151 -74.5 227.5t-220.5 76.5
h-254z" />
    <glyph glyph-name="S" unicode="S" horiz-adv-x="1300" 
d="M1096 1661v-227q-115 63 -217 94t-197 31q-165 0 -254.5 -73.5t-89.5 -209.5q0 -113 59.5 -171.5t225.5 -93.5l122 -29q226 -49 333.5 -174t107.5 -334q0 -250 -145.5 -378.5t-426.5 -128.5q-106 0 -225.5 27.5t-247.5 81.5v239q123 -79 241 -119.5t232 -40.5
q173 0 267 78.5t94 223.5q0 126 -67.5 197.5t-221.5 106.5l-123 28q-226 52 -327 162t-101 307q0 228 139.5 359t384.5 131q105 0 214 -22t223 -65z" />
    <glyph glyph-name="T" unicode="T" horiz-adv-x="1251" 
d="M-6 1717h1263v-196h-530v-1521h-203v1521h-530v196z" />
    <glyph glyph-name="U" unicode="U" horiz-adv-x="1499" 
d="M178 1717h203v-1043q0 -276 87 -397.5t282 -121.5q194 0 281 121.5t87 397.5v1043h203v-1072q0 -336 -144.5 -507t-426.5 -171q-283 0 -427.5 171t-144.5 507v1072z" />
    <glyph glyph-name="V" unicode="V" horiz-adv-x="1401" 
d="M586 0l-570 1717h211l473 -1446l474 1446h210l-569 -1717h-229z" />
    <glyph glyph-name="W" unicode="W" horiz-adv-x="2025" 
d="M68 1717h204l314 -1451l313 1451h227l314 -1451l313 1451h205l-375 -1717h-254l-315 1490l-318 -1490h-254z" />
    <glyph glyph-name="X" unicode="X" horiz-adv-x="1403" 
d="M129 1717h217l371 -638l373 638h217l-480 -825l512 -892h-217l-420 730l-423 -730h-218l533 917z" />
    <glyph glyph-name="Y" unicode="Y" horiz-adv-x="1251" 
d="M-4 1717h217l414 -706l411 706h217l-528 -899v-818h-203v818z" />
    <glyph glyph-name="Z" unicode="Z" horiz-adv-x="1403" 
d="M115 1717h1173v-177l-944 -1345h967v-195h-1219v177l944 1344h-921v196z" />
    <glyph glyph-name="bracketleft" unicode="[" horiz-adv-x="799" 
d="M176 1789h424v-164h-240v-1771h240v-165h-424v2100z" />
    <glyph glyph-name="backslash" unicode="\" horiz-adv-x="690" 
d="M170 1717l520 -1935h-170l-520 1935h170z" />
    <glyph glyph-name="bracketright" unicode="]" horiz-adv-x="799" 
d="M623 1789v-2100h-424v165h239v1771h-239v164h424z" />
    <glyph glyph-name="asciicircum" unicode="^" horiz-adv-x="1716" 
d="M956 1717l543 -641h-201l-440 455l-440 -455h-201l543 641h196z" />
    <glyph glyph-name="underscore" unicode="_" horiz-adv-x="1024" 
d="M1044 -391v-164h-1064v164h1064z" />
    <glyph glyph-name="grave" unicode="`" horiz-adv-x="1024" 
d="M367 1884l282 -430h-153l-326 430h197z" />
    <glyph glyph-name="a" unicode="a" horiz-adv-x="1255" 
d="M702 647q-223 0 -309 -58.5t-86 -199.5q0 -113 64.5 -179t175.5 -66q153 0 245.5 124.5t92.5 331.5v47h-183zM1069 735v-735h-184v195q-63 -117 -157 -172.5t-230 -55.5q-172 0 -273.5 111t-101.5 297q0 217 126.5 327.5t377.5 110.5h258v21q0 146 -83.5 226t-234.5 80
q-96 0 -187 -26.5t-175 -79.5v195q101 45 196 67.5t185 22.5q243 0 363 -145t120 -439z" />
    <glyph glyph-name="b" unicode="b" horiz-adv-x="1300" 
d="M997 643q0 233 -83.5 366t-229.5 133t-229.5 -133t-83.5 -366q0 -234 83.5 -366.5t229.5 -132.5t229.5 132.5t83.5 366.5zM371 1092q58 115 146.5 171t211.5 56q204 0 331.5 -186.5t127.5 -489.5q0 -304 -127.5 -490t-331.5 -186q-123 0 -211.5 55.5t-146.5 170.5v-193
h-185v1789h185v-697z" />
    <glyph glyph-name="c" unicode="c" horiz-adv-x="1126" 
d="M999 1239v-198q-78 49 -156.5 74t-158.5 25q-179 0 -278 -130.5t-99 -366.5t99 -366.5t278 -130.5q80 0 158.5 24.5t156.5 74.5v-196q-77 -41 -159.5 -61.5t-175.5 -20.5q-253 0 -402 182.5t-149 493.5q0 315 150.5 495.5t412.5 180.5q85 0 166 -20t157 -60z" />
    <glyph glyph-name="d" unicode="d" horiz-adv-x="1300" 
d="M930 1092v697h184v-1789h-184v193q-58 -115 -146.5 -170.5t-212.5 -55.5q-203 0 -330.5 186t-127.5 490q0 303 127.5 489.5t330.5 186.5q124 0 212.5 -56t146.5 -171zM303 643q0 -234 83.5 -366.5t229.5 -132.5t230 132.5t84 366.5q0 233 -84 366t-230 133t-229.5 -133
t-83.5 -366z" />
    <glyph glyph-name="e" unicode="e" horiz-adv-x="1260" 
d="M1151 697v-104h-846q12 -218 114.5 -332.5t285.5 -114.5q106 0 205.5 30t197.5 90v-200q-99 -49 -203 -74t-211 -25q-268 0 -424.5 179t-156.5 485q0 317 148.5 502.5t400.5 185.5q226 0 357.5 -167.5t131.5 -454.5zM967 759q-2 174 -84.5 277.5t-218.5 103.5
q-154 0 -246.5 -100t-106.5 -282z" />
    <glyph glyph-name="f" unicode="f" horiz-adv-x="721" 
d="M760 1789v-176h-176q-99 0 -137.5 -46t-38.5 -165v-114h303v-164h-303v-1124h-185v1124h-176v164h176v90q0 215 87 313t276 98h174z" />
    <glyph glyph-name="g" unicode="g" horiz-adv-x="1300" 
d="M930 659q0 230 -82.5 356.5t-231.5 126.5q-148 0 -230.5 -126.5t-82.5 -356.5q0 -229 82.5 -355.5t230.5 -126.5q149 0 231.5 126.5t82.5 355.5zM1114 160q0 -329 -127 -489.5t-389 -160.5q-97 0 -183 16.5t-167 51.5v206q81 -51 160 -75t161 -24q181 0 271 108.5
t90 328.5v105q-57 -114 -146 -170.5t-213 -56.5q-206 0 -332 180.5t-126 478.5q0 299 126 479.5t332 180.5q124 0 213 -56.5t146 -170.5v196h184v-1128z" />
    <glyph glyph-name="h" unicode="h" horiz-adv-x="1298" 
d="M1124 777v-777h-184v770q0 183 -62 274t-186 91q-149 0 -235 -109t-86 -298v-728h-185v1789h185v-701q66 116 155.5 173.5t206.5 57.5q193 0 292 -137.5t99 -404.5z" />
    <glyph glyph-name="i" unicode="i" horiz-adv-x="569" 
d="M193 1288h184v-1288h-184v1288zM193 1789h184v-268h-184v268z" />
    <glyph glyph-name="j" unicode="j" horiz-adv-x="569" 
d="M193 1288h184v-1311q0 -246 -81.5 -356.5t-262.5 -110.5h-70v179h49q105 0 143 56t38 232v1311zM193 1789h184v-268h-184v268z" />
    <glyph glyph-name="k" unicode="k" horiz-adv-x="1186" 
d="M186 1789h185v-1056l549 555h235l-594 -603l619 -685h-240l-569 629v-629h-185v1789z" />
    <glyph glyph-name="l" unicode="l" horiz-adv-x="569" 
d="M193 1789h184v-1789h-184v1789z" />
    <glyph glyph-name="m" unicode="m" horiz-adv-x="1995" 
d="M1065 1041q69 142 165 210t226 68q175 0 270 -141t95 -401v-777h-185v770q0 186 -57 275.5t-174 89.5q-143 0 -226 -109t-83 -298v-728h-185v770q0 187 -57 276t-176 89q-141 0 -224 -110t-83 -297v-728h-185v1288h185v-200q63 118 151 174.5t209 56.5q122 0 207.5 -71.5
t126.5 -206.5z" />
    <glyph glyph-name="n" unicode="n" horiz-adv-x="1298" 
d="M1124 777v-777h-184v770q0 183 -62 274t-186 91q-149 0 -235 -109t-86 -298v-728h-185v1288h185v-200q66 116 155.5 173.5t206.5 57.5q193 0 292 -137.5t99 -404.5z" />
    <glyph glyph-name="o" unicode="o" horiz-adv-x="1253" 
d="M627 1140q-148 0 -234 -133t-86 -364t85.5 -364t234.5 -133q147 0 233 133.5t86 363.5q0 229 -86 363t-233 134zM627 1319q240 0 377 -179.5t137 -496.5q0 -316 -137 -496t-377 -180q-241 0 -377.5 180t-136.5 496q0 317 136.5 496.5t377.5 179.5z" />
    <glyph glyph-name="p" unicode="p" horiz-adv-x="1300" 
d="M371 193v-683h-185v1778h185v-196q58 115 146.5 171t211.5 56q204 0 331.5 -186.5t127.5 -489.5q0 -304 -127.5 -490t-331.5 -186q-123 0 -211.5 55.5t-146.5 170.5zM997 643q0 233 -83.5 366t-229.5 133t-229.5 -133t-83.5 -366q0 -234 83.5 -366.5t229.5 -132.5
t229.5 132.5t83.5 366.5z" />
    <glyph glyph-name="q" unicode="q" horiz-adv-x="1300" 
d="M303 643q0 -234 83.5 -366.5t229.5 -132.5t230 132.5t84 366.5q0 233 -84 366t-230 133t-229.5 -133t-83.5 -366zM930 193q-58 -115 -146.5 -170.5t-212.5 -55.5q-203 0 -330.5 186t-127.5 490q0 303 127.5 489.5t330.5 186.5q124 0 212.5 -56t146.5 -171v196h184v-1778
h-184v683z" />
    <glyph glyph-name="r" unicode="r" horiz-adv-x="842" 
d="M842 1090q-31 21 -67.5 30.5t-80.5 9.5q-156 0 -239.5 -116.5t-83.5 -335.5v-678h-185v1288h185v-200q58 117 151 174t226 57q19 0 42 -3t51 -8z" />
    <glyph glyph-name="s" unicode="s" horiz-adv-x="1067" 
d="M907 1250v-200q-78 46 -162 69t-174 23q-137 0 -205.5 -48.5t-68.5 -144.5q0 -74 49 -116t197 -80l63 -16q196 -48 278.5 -136t82.5 -246q0 -179 -123.5 -283.5t-339.5 -104.5q-90 0 -187.5 20t-205.5 60v219q102 -61 201 -91.5t196 -30.5q130 0 200 51t70 144
q0 86 -50.5 132t-221.5 89l-64 17q-171 42 -247 127.5t-76 235.5q0 181 112 280t318 99q102 0 192 -17t166 -52z" />
    <glyph glyph-name="t" unicode="t" horiz-adv-x="803" 
d="M375 1654v-366h379v-164h-379v-700q0 -157 37.5 -202t152.5 -45h189v-177h-189q-213 0 -294 91.5t-81 332.5v700h-135v164h135v366h185z" />
    <glyph glyph-name="u" unicode="u" horiz-adv-x="1298" 
d="M174 508v780h184v-772q0 -183 62 -274t186 -91q149 0 235.5 109t86.5 298v730h184v-1288h-184v198q-67 -118 -155.5 -174.5t-205.5 -56.5q-193 0 -293 138t-100 403z" />
    <glyph glyph-name="v" unicode="v" horiz-adv-x="1212" 
d="M61 1288h195l350 -1081l350 1081h195l-420 -1288h-250z" />
    <glyph glyph-name="w" unicode="w" horiz-adv-x="1675" 
d="M86 1288h184l230 -1005l229 1005h217l230 -1005l229 1005h184l-293 -1288h-217l-241 1056l-242 -1056h-217z" />
    <glyph glyph-name="x" unicode="x" horiz-adv-x="1212" 
d="M1124 1288l-405 -627l426 -661h-217l-326 506l-326 -506h-217l435 674l-398 614h217l297 -459l297 459h217z" />
    <glyph glyph-name="y" unicode="y" horiz-adv-x="1212" 
d="M659 -120q-78 -230 -152 -300t-198 -70h-147v177h108q76 0 118 41.5t93 195.5l33 97l-453 1267h195l350 -1007l350 1007h195z" />
    <glyph glyph-name="z" unicode="z" horiz-adv-x="1075" 
d="M113 1288h874v-193l-692 -926h692v-169h-899v193l692 926h-667v169z" />
    <glyph glyph-name="braceleft" unicode="{" horiz-adv-x="1303" 
d="M1047 -218v-166h-62q-249 0 -333.5 85t-84.5 339v275q0 174 -54 240.5t-196 66.5h-61v165h61q143 0 196.5 66t53.5 237v276q0 254 84.5 338.5t333.5 84.5h62v-164h-68q-141 0 -184 -50.5t-43 -212.5v-286q0 -180 -45.5 -261.5t-155.5 -110.5q111 -31 156 -113t45 -261
v-285q0 -162 43 -212.5t184 -50.5h68z" />
    <glyph glyph-name="bar" unicode="|" horiz-adv-x="690" 
d="M430 1800v-2355h-170v2355h170z" />
    <glyph glyph-name="braceright" unicode="}" horiz-adv-x="1303" 
d="M256 -218h70q140 0 182.5 49t42.5 214v285q0 179 45 261t156 113q-111 29 -156 110.5t-45 261.5v286q0 163 -42.5 213t-182.5 50h-70v164h63q249 0 332.5 -84.5t83.5 -338.5v-276q0 -171 54 -237t196 -66h62v-165h-62q-142 0 -196 -66.5t-54 -240.5v-275
q0 -254 -83.5 -339t-332.5 -85h-63v166z" />
    <glyph glyph-name="asciitilde" unicode="~" horiz-adv-x="1716" 
d="M1499 940v-205q-105 -91 -194.5 -130t-186.5 -39q-110 0 -256 68q-11 4 -16 7l-22 9q-155 71 -249 71q-88 0 -174 -44.5t-184 -139.5v205q105 91 194.5 130.5t186.5 39.5q110 0 257 -69q10 -5 15 -7q8 -3 22 -9q155 -71 249 -71q86 0 170.5 43.5t187.5 140.5z" />
    <glyph glyph-name="uni10A0" unicode="&#x10a0;" horiz-adv-x="1790" 
d="M1670 784q0 -362 -226.5 -588.5t-555.5 -226.5q-335 0 -551.5 252t-216.5 596q0 450 476 710h-396v168h1354v-169h-651q-593 -231 -593 -709q0 -270 154 -479.5t427 -208.5q250 1 419.5 191t169.5 458q0 133 -83 324l155 75q118 -197 118 -393z" />
    <glyph glyph-name="uni10A1" unicode="&#x10a1;" horiz-adv-x="1502" 
d="M961 -1v705q-188 -74 -338 -74q-226 0 -369.5 166t-143.5 389q0 263 190 510h271q-271 -247 -271 -495q0 -189 102 -299.5t215 -110.5q158 0 344 88v817h180v-1534h301v-162h-481z" />
    <glyph glyph-name="uni10A2" unicode="&#x10a2;" horiz-adv-x="1390" 
d="M1150 -303v302h-371v1283q1 141 -55 208t-167 67q-131 0 -194 -60t-63 -175q0 -103 100 -203l-144 -123q-145 178 -145 321q-1 174 126 286t310 112q189 0 300.5 -119.5t111.5 -295.5v-1140h371v-463h-180z" />
    <glyph glyph-name="uni10A3" unicode="&#x10a3;" horiz-adv-x="1709" 
d="M1410 734q0 267 -175 425.5t-380 158.5q-209 0 -382 -159t-173 -424q0 -259 164.5 -432t394.5 -173q235 0 393 176t158 428zM1599 735q0 -328 -216 -547.5t-524 -217.5q-301 -1 -525 217t-224 547q0 573 663 729v63h-560v169h1286v-169h-559v-60q659 -165 659 -731z" />
    <glyph glyph-name="uni10A4" unicode="&#x10a4;" horiz-adv-x="1260" 
d="M950 0v1113q0 260 -103 351.5t-233 91.5q-148 0 -236.5 -85.5t-88.5 -230.5q0 -211 138 -344l-121 -141q-206 191 -206 476q0 176 136 330t378 154q228 0 372 -150t144 -451v-1114h-180z" />
    <glyph glyph-name="uni10A5" unicode="&#x10a5;" horiz-adv-x="1572" 
d="M1282 520v501h-344v-1020h-181v1315q0 137 -73 188.5t-168 51.5q-107 0 -176.5 -52.5t-69.5 -198.5q0 -77 88 -184l-132 -124q-146 144 -146 304q0 170 126.5 292t307.5 122q186 0 305 -116t119 -288v-131h524v-660h-180z" />
    <glyph glyph-name="uni10A6" unicode="&#x10a6;" horiz-adv-x="1543" 
d="M830 1021h-258v-469q1 -251 80 -337t258 -86q131 1 227 107t96 374q0 250 -112.5 330.5t-290.5 80.5zM1423 596q-2 -289 -142.5 -458t-370.5 -169q-239 0 -378 129t-139 438v999h-333v160h513v-514h257q266 0 429 -145t164 -440z" />
    <glyph glyph-name="uni10A7" unicode="&#x10a7;" horiz-adv-x="1872" 
d="M1113 129v1428h-128q-350 0 -513 -195t-163 -515q0 -283 163 -500.5t513 -217.5h128zM1635 491v529h-340v-1051h-298q-411 -2 -644 238.5t-232 638.5q0 387 228 628t648 241h298v-535h517v-689h-177z" />
    <glyph glyph-name="uni10A8" unicode="&#x10a8;" horiz-adv-x="928" 
d="M619 1v1465h-559v323h179v-164h559v-1624h-179z" />
    <glyph glyph-name="uni10A9" unicode="&#x10a9;" horiz-adv-x="1269" 
d="M970 518v437q0 125 -90 236.5t-246 111.5q-149 0 -335 -57v-418q0 -157 88 -271t247 -114q116 1 336 75zM970 0v367q-195 -85 -340 -85q-245 2 -377.5 164t-132.5 421v828h180v-309q222 78 330 78q245 0 382 -164.5t137 -402.5v-897h-179z" />
    <glyph glyph-name="uni10AA" unicode="&#x10aa;" horiz-adv-x="1726" 
d="M1416 568q0 265 -114 358.5t-244 93.5q-141 0 -294 -61v-384q0 -262 91 -352.5t233 -92.5q119 2 222.5 84t105.5 354zM1095 -31q-235 -1 -372.5 151.5t-137.5 456.5v959h-346v-533h-179v693h704v-576q164 60 305 60q261 0 399 -160.5t138 -466.5t-158.5 -445t-352.5 -139
z" />
    <glyph glyph-name="uni10AB" unicode="&#x10ab;" horiz-adv-x="1807" 
d="M683 1020q-130 0 -251 -96.5t-121 -350.5q2 -219 95.5 -331t228.5 -112q181 0 258 111.5t77 331.5v447h-287zM1505 21v999h-354v-447q0 -276 -122 -440t-396 -163q-199 0 -356 150.5t-157 448.5q0 295 154.5 453.5t408.5 158.5h287v344h-692v170h873v-514h536v-1160h-182
z" />
    <glyph glyph-name="uni10AC" unicode="&#x10ac;" horiz-adv-x="1279" 
d="M970 1v631q0 226 -94.5 307t-248.5 81q-177 0 -317 -97v-922h-180v1289q0 204 114.5 304.5t355.5 100.5h447v-170h-491q-132 1 -190 -43t-56 -209v-173q167 80 337 80q252 0 382 -151t130 -405v-623h-189z" />
    <glyph glyph-name="uni10AD" unicode="&#x10ad;" horiz-adv-x="1750" 
d="M1460 866q0 275 -169.5 482.5t-420.5 207.5q-239 0 -409.5 -203.5t-170.5 -486.5q0 -310 175.5 -523t405.5 -213q259 0 424 228.5t165 507.5zM1470 0h180q0 -343 -322 -343q-300 0 -325 327l-129 -14q-325 0 -549.5 269.5t-224.5 626.5q0 362 229.5 605.5t541.5 243.5
q313 0 546 -244t233 -606q0 -275 -140 -505t-330 -314q1 -240 150 -240q140 3 140 194z" />
    <glyph glyph-name="uni10AE" unicode="&#x10ae;" horiz-adv-x="1600" 
d="M1469 511q1 -224 -140 -382.5t-369 -158.5q-225 0 -373 158.5t-148 392.5v1035h-389v159h569v-1198q0 -173 101.5 -280.5t238.5 -107.5q141 1 236 107.5t95 280.5v1198h179v-1204z" />
    <glyph glyph-name="uni10AF" unicode="&#x10af;" horiz-adv-x="1289" 
d="M980 1v714q-162 -86 -335 -86q-242 0 -378 150.5t-136 381.5q0 159 165 375h-216v160h472v-147q-232 -118 -233 -400q1 -185 90 -272.5t236 -87.5q145 0 335 86v820h179v-1694h-179z" />
    <glyph glyph-name="uni10B0" unicode="&#x10b0;" horiz-adv-x="1867" 
d="M1569 131v889h-439v-456q0 -302 -141 -448t-361 -146q-227 0 -372.5 151.5t-145.5 362.5q0 284 188 427l115 -113q-114 -117 -114 -314q2 -154 101.5 -254t227.5 -100q174 0 248 111.5t74 322.5v1132h180v-517h617v-1048h-178z" />
    <glyph glyph-name="uni10B1" unicode="&#x10b1;" horiz-adv-x="1271" 
d="M1161 554q-2 -267 -154 -425.5t-343 -158.5q-268 0 -401 181t-133 416v1129h179v-1132q1 -197 98 -316t257 -119q129 1 217.5 111.5t88.5 329.5q0 209 -151 351l95 144q246 -193 247 -511z" />
    <glyph glyph-name="uni10B2" unicode="&#x10b2;" horiz-adv-x="1270" 
d="M970 1163q2 190 -107.5 291.5t-265.5 101.5h-288v-767h288q157 1 265.5 92t107.5 282zM1160 1163q0 -218 -151.5 -376t-411.5 -158h-288v-469h706v-161h-885v1716h467q256 0 409.5 -159.5t153.5 -392.5z" />
    <glyph glyph-name="uni10B3" unicode="&#x10b3;" horiz-adv-x="1750" 
d="M1460 865q0 275 -168 483t-416 208q-250 0 -418 -209.5t-168 -480.5q0 -301 176.5 -518.5t407.5 -217.5q245 0 415.5 220t170.5 515zM1650 -30q0 -343 -403 -343v158q230 0 232 188q-2 118 -127 174q-216 -177 -476 -177q-333 0 -554.5 273t-221.5 625q0 351 225 599
t554 248q317 0 544 -247t227 -603q0 -312 -201 -608q201 -128 201 -287z" />
    <glyph glyph-name="uni10B4" unicode="&#x10b4;" horiz-adv-x="1773" 
d="M1079 1559h-98v-972h98q180 0 290 144t111 346q-2 210 -108 345.5t-293 136.5zM808 1559h-101q-179 -2 -298 -137.5t-119 -343.5q0 -206 127.5 -348.5t289.5 -142.5h101v972zM1673 1078q0 -309 -167.5 -475t-426.5 -166h-98v-436h-173v436h-101q-260 -1 -433.5 166
t-173.5 475t175 469t432 161h372q260 0 427 -158t167 -472z" />
    <glyph glyph-name="uni10B5" unicode="&#x10b5;" horiz-adv-x="1482" 
d="M1204 614v337h-376v-950h-179v949h-559v473h189v-304h370v577h179v-575h564v-507h-188z" />
    <glyph glyph-name="uni10B6" unicode="&#x10b6;" horiz-adv-x="1290" 
d="M1160 -31h-180v1196q0 172 -95.5 282t-234.5 109q-138 0 -239.5 -109.5t-101.5 -281.5v-1196h-178v1192q-1 233 147 393.5t373 160.5q229 0 368.5 -164t140.5 -380v-1202z" />
    <glyph glyph-name="uni10B7" unicode="&#x10b7;" horiz-adv-x="1271" 
d="M961 1v706q-210 -77 -354 -77q-252 0 -374.5 137t-122.5 356v573h180v-571q-2 -177 73 -256t235 -79q184 0 363 85v821h180v-1695h-180z" />
    <glyph glyph-name="uni10B8" unicode="&#x10b8;" horiz-adv-x="1280" 
d="M1150 462q0 -184 -122 -337.5t-400 -155.5q-209 2 -358.5 122t-149.5 344v36h189v-33q0 -144 91 -226t226 -82q142 0 243.5 82.5t101.5 249.5v251q-182 -83 -351 -83q-246 0 -373 156.5t-127 341.5v568h180v-568q1 -151 84.5 -244.5t249.5 -93.5q164 0 337 88v818h179
v-1234z" />
    <glyph glyph-name="uni10B9" unicode="&#x10b9;" horiz-adv-x="1269" 
d="M980 1v683q1 147 -75.5 241.5t-283.5 94.5q-135 0 -311 -48v-971h-180v1694h179v-563q174 48 330 48q217 0 368.5 -127.5t151.5 -423.5v-628h-179z" />
    <glyph glyph-name="uni10BA" unicode="&#x10ba;" horiz-adv-x="1675" 
d="M1383 -1v97q-246 -127 -409 -127q-395 1 -624 260.5t-229 625.5q-1 391 238.5 625.5t614.5 234.5q261 -2 507 -167l-102 -176q-219 184 -411 184q-260 0 -459 -183.5t-199 -517.5q0 -303 192 -515t468 -210q160 -1 413 157v503h182v-791h-182z" />
    <glyph glyph-name="uni10BB" unicode="&#x10bb;" horiz-adv-x="1789" 
d="M711 1020q-199 0 -300 -134t-101 -292q0 -218 99.5 -341t254.5 -123q136 0 216 99.5t80 314.5v476h-249zM1482 19v1001h-341v-476q0 -294 -133.5 -434t-340.5 -140q-261 0 -404 168t-143 456q0 271 163.5 428.5t427.5 157.5h249v516h181v-516h518v-1161h-177z" />
    <glyph glyph-name="uni10BC" unicode="&#x10bc;" horiz-adv-x="1260" 
d="M970 1298q0 129 -56 183.5t-149 54.5h-455v-492h455q80 2 143 65.5t62 188.5zM1160 1301q0 -170 -105 -293.5t-290 -123.5h-455v-255h539v-389h-179v231h-360v-472h-180v1696h635q185 0 290 -113t105 -281z" />
    <glyph glyph-name="uni10BD" unicode="&#x10bd;" horiz-adv-x="1276" 
d="M1176 465q0 -211 -138.5 -353t-366.5 -142q-268 0 -419.5 178.5t-151.5 430.5h191q-1 -181 101.5 -315t274.5 -134q164 0 241 84.5t77 238.5q0 200 -419 370q-416 170 -416 457q0 160 127 297.5t339 137.5q226 0 345 -143.5t119 -352.5h-186q1 198 -84 267.5t-206 69.5
q-128 0 -197 -75t-67 -193q0 -206 418 -381t418 -442z" />
    <glyph glyph-name="uni10BE" unicode="&#x10be;" horiz-adv-x="1280" 
d="M1160 1234q0 -308 -145 -456t-385 -148q-165 0 -320 23v-482h716v-172h-896v1696h180v-883q141 -22 331 -22q132 0 235.5 80t103.5 342v483h180v-461z" />
    <glyph glyph-name="uni10BF" unicode="&#x10bf;" horiz-adv-x="1484" 
d="M1146 1526h-610l275 -520zM1241 188h-215l-235 502l-405 -689h-220l538 863l-389 662h-255v169h1364l-529 -868z" />
    <glyph glyph-name="uni10C0" unicode="&#x10c0;" horiz-adv-x="1729" 
d="M1607 524q2 -243 -147.5 -398.5t-357.5 -155.5q-257 0 -391.5 173t-134.5 381v1012h-336v-375h-180v535h695v-1186q2 -139 91.5 -259.5t257.5 -120.5q129 0 226.5 104.5t97.5 275.5v670h179v-656z" />
    <glyph glyph-name="uni10C1" unicode="&#x10c1;" horiz-adv-x="1220" 
d="M783 567v159q0 155 -44 224.5t-176 69.5h-253v-1019h-180v1695h180v-516h256q189 0 296.5 -94.5t107.5 -261.5v-98h190v-160z" />
    <glyph glyph-name="uni10C2" unicode="&#x10c2;" horiz-adv-x="1410" 
d="M1300 565q0 -281 -180 -438t-424 -157q-243 0 -414 157t-171 448q-1 230 182 425l137 -131q-129 -137 -129 -296q0 -228 115 -335.5t283 -107.5q211 0 310.5 115.5t99.5 319.5q2 284 -385 450t-387 412q0 129 97.5 208.5t222.5 79.5q145 0 242.5 -79.5t97.5 -221.5h-194
q-1 142 -146 142q-125 0 -127 -125q2 -184 386 -341.5t384 -524.5z" />
    <glyph glyph-name="uni10C3" unicode="&#x10c3;" horiz-adv-x="1220" 
d="M911 1v628h-238q-214 1 -318.5 131.5t-104.5 310.5v20h-190v159h374v-109q-13 -102 32 -226.5t204 -124.5h241v906h179v-1695h-179z" />
    <glyph glyph-name="uni10C4" unicode="&#x10c4;" horiz-adv-x="1216" 
d="M1106 1159q0 -295 -159 -407.5t-235 -113.5v-637h-187v637q-91 1 -253 115.5t-162 405.5v537h180v-539q1 -199 82.5 -283.5t178.5 -84.5h131q94 1 168.5 83t74.5 285v539h181v-537z" />
    <glyph glyph-name="uni10C5" unicode="&#x10c5;" horiz-adv-x="1499" 
d="M668 569h-194q-69 0 -135.5 -46.5t-68.5 -172.5q0 -125 63.5 -172.5t135.5 -47.5q80 0 139.5 52t59.5 148v239zM1241 1367q0 100 -60 144.5t-148 44.5q-99 0 -147.5 -67.5t-47.5 -157.5v-181h179q104 0 164 60.5t60 156.5zM1432 1371q-1 -159 -112 -264.5t-303 -105.5
h-179v-281h346v-151h-346v-239q-2 -156 -109 -257.5t-255 -103.5q-176 2 -285 101.5t-109 277.5q0 147 106.5 259.5t287.5 112.5h194v281h-382v149h382v181q2 190 94 287t253 97q190 0 303 -94t114 -250z" />
    <glyph glyph-name="uni10D0" unicode="&#x10d0;" 
d="M940 426q0 -456 -421 -456q-419 0 -419 466q0 84 38 207h176q-34 -119 -34 -207q0 -326 242 -326q239 0 239 316q-1 212 -196 393.5t-195 393.5h187q1 -164 192 -345t191 -442z" />
    <glyph glyph-name="uni10D1" unicode="&#x10d1;" horiz-adv-x="1060" 
d="M960 545q0 -574 -423 -574q-437 0 -437 572q0 560 395 585l19 67q47 167 -100 272q-147 106 -147 248h183q0 -65 129 -201q130 -133 82 -313l-19 -73q318 -83 318 -583zM780 543q0 439 -246 460q-254 -20 -254 -460q0 -432 257 -432q243 0 243 432z" />
    <glyph glyph-name="uni10D2" unicode="&#x10d2;" horiz-adv-x="1190" 
d="M1100 62q0 -235 -128.5 -389.5t-371.5 -154.5q-232 0 -371 155t-139 389q0 482 466 583q161 79 162 209q0 147 -169 147q-156 0 -154 -134q0 -17 6 -49l-160 -40q-15 34 -15 87q0 264 325 264q339 0 337 -284q0 -127 -151 -223q363 -143 363 -560zM920 62
q0 169 -72.5 297t-246.5 147q-162 -12 -247 -148.5t-85 -293.5q0 -194 91.5 -300t236.5 -106q132 0 227.5 106.5t95.5 297.5z" />
    <glyph glyph-name="uni10D3" unicode="&#x10d3;" horiz-adv-x="1665" 
d="M1555 592q-1 -541 -419 -541q-434 0 -434 552q0 142 28 208q-87 164 -204 164q-246 0 -246 -339q0 -501 357 -694q237 -50 400 -168t160 -246h-199q2 95 -118 176t-263 81q-188 -3 -304 -165l-122 108q107 113 263 160q-354 253 -354 736q0 492 389 492q179 0 290 -172
q102 177 357 177q419 0 419 -529zM1375 602q0 378 -239 378q-267 0 -267 -377q0 -414 267 -414q239 0 239 413z" />
    <glyph glyph-name="uni10D4" unicode="&#x10d4;" horiz-adv-x="1030" 
d="M920 -63q0 -420 -396 -420q-424 0 -424 422q0 103 33 225h172q-25 -141 -25 -227q0 -280 244 -280q226 0 226 278v787q0 258 -225 258q-200 0 -201 -224q1 -114 56 -246h-172q-49 103 -50 240q1 370 367 370q395 0 395 -401v-782z" />
    <glyph glyph-name="uni10D5" unicode="&#x10d5;" horiz-adv-x="1050" 
d="M940 -61q0 -422 -401 -422q-439 0 -439 416q0 117 37 229h174q-32 -112 -32 -229q0 -276 260 -276q221 -2 221 280v134q0 216 -170 242h-136v152h99q200 92 200 309q0 207 -235 207q-200 0 -200 -191q1 -90 32 -185h-176q-33 95 -33 175q0 340 377 340q415 0 415 -350
q0 -210 -211 -343q218 -104 218 -358v-130z" />
    <glyph glyph-name="uni10D6" unicode="&#x10d6;" horiz-adv-x="1025" 
d="M925 547q0 -576 -420 -576q-422 0 -422 576q0 392 193 489q-236 83 -235 338q0 325 335 342q338 -17 338 -357q-1 -172 -121 -248q332 -68 332 -564zM745 547q0 444 -242 443q-241 1 -241 -442q0 -437 243 -437q238 0 240 436zM555 1336q1 250 -170 250q-177 0 -176 -220
q-1 -228 174 -229q174 1 172 199z" />
    <glyph glyph-name="uni10D7" unicode="&#x10d7;" horiz-adv-x="1640" 
d="M100 523q0 597 420 597q245 0 337 -170q108 165 284 165q399 0 399 -532q-2 -320 -231 -602h-224q275 277 275 597q2 398 -200 398q-151 0 -242 -186q23 -74 23 -263q-28 -556 -425 -556q-416 0 -416 552zM760 523q0 458 -242 458q-238 0 -238 -458q0 -412 236 -412
q244 0 244 412z" />
    <glyph glyph-name="uni10D8" unicode="&#x10d8;" horiz-adv-x="1060" 
d="M960 580q0 -268 -143 -579h-183q146 288 146 579q0 400 -257 400q-243 0 -243 -403q0 -288 145 -577h-184q-141 312 -141 583q0 537 432 537q428 0 428 -540z" />
    <glyph glyph-name="uni10D9" unicode="&#x10d9;" horiz-adv-x="1045" 
d="M933 -62q2 -421 -401 -421q-442 0 -442 408q-1 104 50 239h170q-40 -143 -40 -230q0 -277 265 -277q218 -2 218 281v157q0 254 -232 254h-180v148h103q297 70 297 262q0 179 -182 351h233q121 -168 121 -351q0 -207 -239 -304q259 -91 259 -360v-157z" />
    <glyph glyph-name="uni10DA" unicode="&#x10da;" horiz-adv-x="2120" 
d="M2020 682q-1 -256 -180 -534h-215q216 270 216 534q0 299 -209 299q-206 0 -208 -263l-11 -245h-151l-12 245q0 268 -192 268q-187 0 -187 -268l-10 -245h-150l-10 245q0 263 -202 263q-219 0 -219 -349q0 -450 776 -674q434 -102 501 -430h-175q-49 231 -494 315
q-336 -30 -468 -182l-109 128q130 111 360 150q-571 229 -571 698q0 483 399 483q193 0 285 -203q96 213 274 213q195 0 283 -217q94 207 290 207q389 0 389 -438z" />
    <glyph glyph-name="uni10DB" unicode="&#x10db;" horiz-adv-x="1071" 
d="M941 444q0 -474 -402 -474q-439 0 -439 585q0 565 442 565q127 -11 228 -60v304q0 211 -208 211q-222 0 -222 -200v-47h-178v47q0 340 400 340q379 0 379 -352v-919zM770 926q-68 44 -218 54q-272 0 -272 -426q0 -444 263 -444q227 0 227 345v471z" />
    <glyph glyph-name="uni10DC" unicode="&#x10dc;" horiz-adv-x="1070" 
d="M970 537q0 -568 -430 -568q-410 0 -410 497v891q0 348 334 348h418v-146h-464q-118 0 -118 -142v-372q139 64 285 75q385 0 385 -583zM790 537q0 443 -251 443q-123 -10 -239 -69v-435q0 -367 237 -367q253 0 253 428z" />
    <glyph glyph-name="uni10DD" unicode="&#x10dd;" horiz-adv-x="1610" 
d="M1509 598q1 -342 -274 -598h-209q303 238 303 598q-1 382 -211 382q-231 0 -231 -345v-210h-165v210q0 345 -231 345q-211 0 -211 -382q-1 -346 311 -599h-209q-282 252 -282 599q0 522 392 522q225 0 312 -227q97 227 317 227q389 0 388 -522z" />
    <glyph glyph-name="uni10DE" unicode="&#x10de;" 
d="M940 513q0 -543 -421 -543q-419 0 -419 473q0 70 18 200h178q-16 -120 -16 -198q0 -335 239 -335q241 0 241 403q0 365 -199 365h-174v150h129q194 0 222 171q0 159 -188.5 235.5t-188.5 270.5h183q0 -100 175.5 -200t175.5 -268q0 -175 -155 -269q200 -126 200 -455z
" />
    <glyph glyph-name="uni10DF" unicode="&#x10df;" horiz-adv-x="1061" 
d="M940 -64q1 -419 -412 -419q-425 0 -428 441q0 90 35 207h180q-36 -127 -35 -207q1 -301 243 -301q247 0 247 281v1015l-382 -79q197 -115 197 -249q0 -252 -455 -254v164q297 0 296 110q1 117 -296 188v118l810 178v-1193z" />
    <glyph glyph-name="uni10E0" unicode="&#x10e0;" horiz-adv-x="1630" 
d="M1530 587q0 -333 -286 -586h-229q335 224 335 586q-2 393 -230 393q-222 0 -222 -354v-195h-167v195q1 354 -219 354q-232 0 -232 -393q0 -362 336 -587h-238q-278 259 -278 587q0 433 249 743.5t763 374.5v-167q-484 -23 -790 -454v-41l182 77q217 0 308 -253
q96 253 316 253q402 0 402 -533z" />
    <glyph glyph-name="uni10E1" unicode="&#x10e1;" horiz-adv-x="1070" 
d="M970 483q0 -513 -410 -513q-430 0 -430 528v1196h170v-1196q0 -388 260 -388q230 0 230 373q1 169 -98.5 292.5t-99.5 279.5q0 74 15 166h172q-27 -125 -27 -164q0 -121 109 -261t109 -313z" />
    <glyph glyph-name="uni10E2" unicode="&#x10e2;" horiz-adv-x="1300" 
d="M90 314q0 752 497 807l-23 271h178l-23 -275q491 -52 491 -810q0 -339 -137.5 -564.5t-418.5 -225.5q-284 0 -424 223t-140 574zM270 314q-1 -322 89 -488.5t294 -166.5q193 0 284.5 162.5t91.5 492.5q0 600 -310 686l23 -619h-177l22 618q-317 -84 -317 -685z" />
    <glyph glyph-name="uni10E3" unicode="&#x10e3;" horiz-adv-x="1070" 
d="M950 -64q0 -419 -402 -419q-441 0 -441 419q-1 114 38 230h178q-38 -116 -36 -230q0 -279 261 -279q232 0 232 279v921q-2 132 -117 132q-123 0 -123 -140l-10 -347h-143l-10 347q0 120 -116 120q-112 0 -161 40l20 161q53 -50 137 -50q143 0 192 -143q57 143 217 143
q284 0 284 -263v-921z" />
    <glyph glyph-name="uni10E4" unicode="&#x10e4;" horiz-adv-x="1690" 
d="M100 593q0 527 417 527q259 0 352 -198q120 193 308 193q393 0 392 -430q0 -270 -251 -423q223 -96 223 -298v-42q-1 -180 -149 -292.5t-426 -112.5q-286 0 -421 94t-135 243v49l184 40v-89q0 -82 79 -139.5t293 -57.5q235 0 315 77t80 188v38q0 217 -233 217h-30v151h27
q83 0 175.5 90.5t89.5 245.5q0 311 -212 311q-159 0 -256 -174q10 -60 15 -106t5 -100q0 -509 -419 -509q-423 0 -423 507zM762 591q0 389 -245 389q-237 0 -237 -387q0 -366 237 -366q245 0 245 364z" />
    <glyph glyph-name="uni10E5" unicode="&#x10e5;" horiz-adv-x="1050" 
d="M920 -63q0 -420 -393 -420q-427 0 -427 420q0 100 33 225h182q-35 -112 -35 -225q0 -280 247 -280q223 0 223 280v958q-103 75 -276 86q-164 0 -164 -201q-1 -100 50 -246h-177q-42 103 -42 206q0 380 318 380q167 -10 291 -90v665h170v-1758z" />
    <glyph glyph-name="uni10E6" unicode="&#x10e6;" horiz-adv-x="1610" 
d="M272 -179q80 60 259 113q-431 297 -431 702q0 483 396 483q216 0 312 -231q91 231 293 231q409 0 409 -459q0 -237 -168 -497h-201q192 269 192 497q-2 321 -226 321q-219 0 -219 -279l-3 -216h-158l-5 216q0 279 -224 279q-218 0 -218 -345q0 -471 514 -696
q366 -170 366 -411h-179q0 167 -230 280q-191 43 -385 -130z" />
    <glyph glyph-name="uni10E7" unicode="&#x10e7;" horiz-adv-x="1060" 
d="M940 -66q0 -417 -409 -417q-431 0 -431 416q0 71 28 198h184q-32 -111 -32 -195q0 -279 253 -279q237 0 237 281v374q-124 -63 -252 -73q-390 0 -390 429q0 220 175 434h207q-203 -224 -203 -434q0 -290 211 -290q145 11 252 73v650h170v-1167z" />
    <glyph glyph-name="uni10E8" unicode="&#x10e8;" horiz-adv-x="1072" 
d="M942 425q0 -455 -383 -455q-459 0 -459 570q0 580 418 580q120 0 257 -54v359q0 160 -111 160q-148 0 -148 -150v-116h-149v118q1 128 -125 128l-142 -52v202h137q133 0 198 -134q62 134 246 134q261 0 261 -294v-996zM770 389v548q-135 43 -248 43q-242 0 -242 -440
q0 -430 254 -430q236 0 236 279z" />
    <glyph glyph-name="uni10E9" unicode="&#x10e9;" horiz-adv-x="1070" 
d="M587 1230q37 109 37 168q0 187 -160 187q-164 0 -164 -207v-359q148 71 264 71q406 0 406 -460q0 -293 -173 -629h-211q203 339 203 625q0 324 -239 324q-132 0 -250 -57v-893h-170v1363q0 352 334 352q321 0 321 -316q0 -70 -32 -169h-166z" />
    <glyph glyph-name="uni10EA" unicode="&#x10ea;" horiz-adv-x="1140" 
d="M1010 683q0 -167 -184 -272q214 -78 214 -386q-1 -508 -463 -508q-477 0 -477 798v163q0 296 116 611h187q-125 -308 -125 -622v-152q0 -658 300 -658q290 0 290 364q-2 317 -207 317h-173v135h121q234 0 232 206q2 87 -100.5 157.5t-112.5 252.5h186q10 -132 103 -206.5
t93 -199.5z" />
    <glyph glyph-name="uni10EB" unicode="&#x10eb;" horiz-adv-x="1070" 
d="M939 503q1 -532 -420 -532q-419 0 -419 564q0 555 419 555q92 1 251 -70v675h169v-1192zM770 461v423q-132 66 -252 66q-238 0 -238 -415q0 -424 239 -424q251 0 251 350z" />
    <glyph glyph-name="uni10EC" unicode="&#x10ec;" horiz-adv-x="1072" 
d="M302 389q0 -279 236 -279q254 0 254 430q0 440 -242 440q-113 0 -248 -43v-548zM130 1421q0 294 261 294q184 0 246 -134q65 134 198 134h137v-202l-142 52q-126 0 -125 -128v-118h-149v116q0 150 -148 150q-111 0 -111 -160v-359q137 54 257 54q418 0 418 -580
q0 -570 -459 -570q-383 0 -383 455v996z" />
    <glyph glyph-name="uni10ED" unicode="&#x10ed;" 
d="M502 1694h168v-624h245v-143h-245v-62q2 -230 136 -477.5t134 -453.5q0 -417 -418 -417q-421 0 -422 417q0 75 32 229h175q-27 -163 -27 -239q0 -267 242 -267q238 0 239 280q0 166 -128 428t-131 500v62h-65q-190 0 -190 -150q0 -146 154 -146h47v-134h-47
q-300 -1 -300 278q0 295 341 295h60v624z" />
    <glyph glyph-name="uni10EE" unicode="&#x10ee;" horiz-adv-x="1070" 
d="M970 552q0 -582 -414 -582q-426 0 -426 559v1165h170v-637q137 63 264 63q406 0 406 -568zM790 552q0 428 -239 428q-96 0 -251 -59v-436q0 -375 254 -375q236 0 236 442z" />
    <glyph glyph-name="uni10EF" unicode="&#x10ef;" horiz-adv-x="930" 
d="M910 469l-81 -128l-280 176l-143 -302q265 -120 266 -301q-1 -188 -167.5 -292t-404.5 -104v150q160 0 275 57.5t115 169.5q-1 152 -193 202l-115 69l214 416l-376 186l81 140l358 -194l86 154q19 34 19 71q0 45 -31.5 71t-107.5 26h-69v135h68q145 0 224 -46
q82 -45 82 -185q0 -85 -35 -150l-92 -156z" />
    <glyph glyph-name="uni10F0" unicode="&#x10f0;" 
d="M940 365q0 -395 -415 -395q-425 0 -425 414q0 82 40 169h180q-40 -103 -40 -169q0 -274 239 -274q241 0 241 247q0 240 -113 242h-183v130h183q101 0 101 156q2 128 -101 128h-183v133h182q90 0 92 146q0 109 -219 183.5t-219 239.5h167q0 -86 220.5 -155t220.5 -252
q0 -160 -143 -221q163 -69 163 -205q0 -145 -157 -217q169 -113 169 -300z" />
    <glyph glyph-name="uni10F1" unicode="&#x10f1;" horiz-adv-x="1060" 
d="M960 385q0 -415 -421 -415q-419 0 -419 495v1208h170v-1208q0 -355 243 -355q247 0 247 267q0 227 -119 227h-183v120h183q111 0 111 151q2 143 -111 143h-183v123h182q100 0 102 191q0 109 -126 149.5t-126 233.5h186q0 -136 119.5 -180.5t123.5 -206.5
q0 -179 -173 -241q183 -69 183 -215q0 -135 -177 -207q188 -113 188 -280z" />
    <glyph glyph-name="uni10F2" unicode="&#x10f2;" 
d="M141 -84q151 0 221 115q-262 178 -262 529q0 560 422 560q416 0 416 -560q2 -350 -273 -529q82 -115 227 -115v-204q-225 73 -370 282q-158 -207 -381 -282v204zM280 563q0 -355 242 -477q236 121 236 477q0 417 -238 417q-240 0 -240 -417z" />
    <glyph glyph-name="uni10F3" unicode="&#x10f3;" 
d="M940 -61q0 -422 -423 -422q-417 0 -417 420q0 77 31 226h187q-38 -141 -39 -221q1 -285 243 -285q239 0 239 287v164q0 286 -221 284h-181v131h111q291 110 291 367v88l-446 -19v-244h-174v373l799 31q0 -557 -257 -619q257 -129 257 -397v-164z" />
    <glyph glyph-name="uni10F4" unicode="&#x10f4;" horiz-adv-x="1060" 
d="M939 -65q0 -418 -417 -418q-422 0 -422 424q0 109 32 222h180q-32 -136 -32 -226q0 -282 242 -282q236 0 236 280v209q0 253 -242 253h-157v138h67q333 17 333 454q-92 -21 -234 -21q-425 2 -425 373q0 374 425 374v-132q-244 0 -244 -242q0 -232 241 -231q196 0 417 156
v-283q1 -384 -224 -466q224 -121 224 -373v-209z" />
    <glyph glyph-name="uni10F5" unicode="&#x10f5;" horiz-adv-x="1135" 
d="M941 626v-248q0 -408 -423 -408q-418 0 -418 408q0 385 415 386h266v215h-266q-415 0 -415 375q0 361 422 361q419 0 419 -361v-239h114v-136h-114v-215h114v-138h-114zM776 625h-261q-235 0 -235 -240q0 -276 246 -276q250 0 250 287v229zM280 1352q0 -237 235 -237h261
v239q0 221 -250 221q-246 0 -246 -223z" />
    <glyph glyph-name="uni10F6" unicode="&#x10f6;" horiz-adv-x="1655" 
d="M1553 551q2 -581 -421 -581q-136 0 -232 136v-199q0 -390 -418 -390v140q248 0 248 248v659q0 417 -228 417q-222 0 -222 -429q0 -411 260 -411v-138q-440 3 -440 549q0 568 402 568q211 0 305 -187q88 187 325 187q423 0 421 -569zM1374 551q0 430 -247 430
q-227 0 -227 -315v-231q0 -327 232 -326q242 0 242 442z" />
    <glyph glyph-name="uni10F7" unicode="&#x10f7;" horiz-adv-x="1130" 
d="M1040 -25q0 -458 -492 -458q-458 0 -458 458q0 313 311 501q310 189 310 330q0 175 -159 175q-191 0 -193 -170l5 -60h-156l-10 47q0 322 354 322q335 0 337 -305q0 -222 -309 -407q-310 -184 -310 -424q0 -327 282 -327q308 0 308 332q0 129 -96 281h190
q86 -158 86 -295z" />
    <glyph glyph-name="uni10F8" unicode="&#x10f8;" horiz-adv-x="1060" 
d="M120 1101h170v-650q107 -62 252 -73q211 0 211 290q0 210 -203 434h207q175 -214 175 -434q0 -429 -390 -429q-128 10 -252 73v-374q0 -281 237 -281q253 0 253 279q0 64 -32 175h184q28 -127 28 -178q0 -416 -431 -416q-409 0 -409 417v1167z" />
    <glyph glyph-name="uni10F9" unicode="&#x10f9;" horiz-adv-x="1170" 
d="M80 584q0 227 122.5 385.5t375.5 158.5q264 0 388 -161t124 -383q-3 -473 -508 -543q-131 -119 -132 -249q0 -147 179 -147q156 0 154 134l-6 49l160 40l15 -87q0 -264 -325 -264q-339 0 -337 284q0 126 110 287q-320 140 -320 496zM260 584q0 -128 73.5 -261t241.5 -133
q194 0 265 132.5t71 259.5q0 186 -76 296t-254 110q-141 0 -231 -110.5t-90 -293.5z" />
    <glyph glyph-name="uni10FA" unicode="&#x10fa;" 
d="M120 79l330 85q-350 98 -350 490q0 465 431 467q322 -2 409 -245l-180 -57q-30 162 -226 162q-254 0 -254 -322q0 -426 516 -406l63 16v-163l-739 -190v163z" />
    <glyph glyph-name="uni10FB" unicode="&#x10fb;" horiz-adv-x="917" 
d="M110 1072h205v-189h-205v189zM608 651h199v-186h-199v186zM110 187h202v-187h-202v187z" />
    <glyph glyph-name="uni10FC" unicode="&#x10fc;" horiz-adv-x="573" 
d="M270 1458q243 0 242 -292q0 -305 -248 -306q-244 0 -244 306v355q0 194 198 194h241v-106h-246q-55 0 -55 -76v-129zM372 1166q0 183 -113 183q-100 0 -101 -189q0 -185 106 -185q108 0 108 191z" />
    <glyph glyph-name="uni2010" unicode="&#x2010;" horiz-adv-x="789" 
d="M100 697h589v-164h-589v164z" />
    <glyph glyph-name="uni2011" unicode="&#x2011;" horiz-adv-x="739" 
d="M100 697h589v-164h-589v164z" />
    <glyph glyph-name="figuredash" unicode="&#x2012;" horiz-adv-x="1303" 
d="M100 696h1103v-144h-1103v144z" />
    <glyph glyph-name="endash" unicode="&#x2013;" horiz-adv-x="1024" 
d="M100 696h824v-164h-824v164z" />
    <glyph glyph-name="emdash" unicode="&#x2014;" horiz-adv-x="2048" 
d="M100 696h1848v-144h-1848v144z" />
    <glyph glyph-name="uni2015" unicode="&#x2015;" horiz-adv-x="2048" 
d="M0 697h2048v-144h-2048v144z" />
    <glyph glyph-name="quoteleft" unicode="&#x2018;" horiz-adv-x="651" 
d="M385 1246h-211v173l164 319h129l-82 -319v-173z" />
    <glyph glyph-name="quoteright" unicode="&#x2019;" horiz-adv-x="651" 
d="M260 1737h211v-152l-164 -319h-129l82 319v152z" />
    <glyph glyph-name="quotesinglbase" unicode="&#x201a;" horiz-adv-x="651" 
d="M256 254h211v-172l-164 -320h-129l82 320v172z" />
    <glyph glyph-name="quotereversed" unicode="&#x201b;" horiz-adv-x="651" 
d="M389 1740v-152l82 -319h-129l-164 319v152h211z" />
    <glyph glyph-name="quotedblleft" unicode="&#x201c;" horiz-adv-x="1061" 
d="M385 1245h-211v173l164 319h129l-82 -319v-173zM795 1245h-211v173l164 319h129l-82 -319v-173z" />
    <glyph glyph-name="quotedblright" unicode="&#x201d;" horiz-adv-x="1061" 
d="M256 1741h211v-172l-164 -320h-129l82 320v172zM666 1741h211v-172l-164 -320h-129l82 320v172z" />
    <glyph glyph-name="quotedblbase" unicode="&#x201e;" horiz-adv-x="1061" 
d="M666 254h211v-172l-164 -320h-129l82 320v172zM256 254h211v-172l-164 -320h-129l82 320v172z" />
    <glyph glyph-name="uni201F" unicode="&#x201f;" horiz-adv-x="1061" 
d="M385 1740v-173l82 -319h-129l-164 319v173h211zM795 1740v-173l82 -319h-129l-164 319v173h211z" />
    <glyph glyph-name="dagger" unicode="&#x2020;" horiz-adv-x="1024" 
d="M424 1493h176v-420h367v-153h-367v-1117h-176v1117h-367v153h367v420z" />
    <glyph glyph-name="bullet" unicode="&#x2022;" horiz-adv-x="1208" 
d="M307 762q0 124 86.5 209.5t212.5 85.5q124 0 209.5 -85.5t85.5 -209.5q0 -125 -86 -211t-211 -86t-211 86t-86 211z" />
    <glyph glyph-name="uni2023" unicode="&#x2023;" horiz-adv-x="1208" 
d="M307 385v752l674 -376z" />
    <glyph glyph-name="onedotenleader" unicode="&#x2024;" horiz-adv-x="685" 
d="M236 254h243v-254h-243v254z" />
    <glyph glyph-name="uni2027" unicode="&#x2027;" horiz-adv-x="651" 
d="M220 873h211v-254h-211v254z" />
    <glyph glyph-name="minute" unicode="&#x2032;" horiz-adv-x="465" 
d="M40 1363l173 373h203l-289 -373h-87z" />
    <glyph glyph-name="second" unicode="&#x2033;" horiz-adv-x="765" 
d="M40 1363l173 373h203l-289 -373h-87zM340 1363l173 373h203l-289 -373h-87z" />
    <glyph glyph-name="uni2035" unicode="&#x2035;" horiz-adv-x="465" 
d="M416 1360h-87l-289 373h203z" />
    <glyph glyph-name="uni2036" unicode="&#x2036;" horiz-adv-x="765" 
d="M416 1360h-87l-289 373h203zM716 1360h-87l-289 373h203z" />
    <glyph glyph-name="uni2D00" unicode="&#x2d00;" horiz-adv-x="1210" 
d="M1080 685h-192l19 129q25 172 -81 172q-144 0 -442 -172l-69 -508q-27 -174 88 -174q128 0 238 77t200 77q183 0 140 -286l-18 -130h-191l18 130q19 132 -33 132q-89 -1 -211.5 -66.5t-272.5 -65.5q-192 0 -150 305l116 815h191l-24 -177q378 177 524 177q210 0 185 -177
z" />
    <glyph glyph-name="uni2D01" unicode="&#x2d01;" horiz-adv-x="1218" 
d="M1018 301q-15 -120 37 -224.5t26 -262.5q-27 -135 -161 -215.5t-344 -80.5q-257 0 -402.5 85.5t-123.5 235.5h186q-11 -68 62.5 -130t290.5 -62q107 1 203 37t121 154q19 96 -34 201.5t-45 186.5q-393 -176 -541 -176q-211 0 -186 175l152 894h188l-132 -763
q-24 -174 90 -174q157 -2 429 174l113 763h191z" />
    <glyph glyph-name="uni2D02" unicode="&#x2d02;" horiz-adv-x="1156" 
d="M936 409q-31 -141 64.5 -232t95.5 -267q0 -189 -161 -290.5t-371 -101.5q-176 0 -324 79.5t-160 251.5v89h187v-80q7 -91 86.5 -151.5t227.5 -60.5q149 0 240.5 64.5t91.5 195.5q0 132 -99.5 248t-63.5 300l90 358q25 174 -79 174q-145 0 -397 -174l-57 -541h-190
l100 848h189l-23 -176q338 176 481 176q212 0 188 -176z" />
    <glyph glyph-name="uni2D03" unicode="&#x2d03;" horiz-adv-x="1232" 
d="M938 849q27 180 -222 156q-300 -32 -339 -234l-69 -472q-27 -188 131 -188q395 0 427 215zM1060 338q-24 -160 -243 -260q-219 -99 -391 -99q-356 0 -299 398l57 383q32 225 421 315l4 357q-90 -20 -156.5 -30.5t-112.5 -10.5q-164 0 -162 126l10 136h196l-10 -80
q-10 -65 63 -65q66 0 268 52q209 53 306 53q161 0 161 -71v-120h-117v61q-2 37 -123 18l-164 -39l7 -364l104 9q292 27 240 -354z" />
    <glyph glyph-name="uni2D04" unicode="&#x2d04;" horiz-adv-x="1203" 
d="M1076 -482h-209l-82 614l104 680q25 174 -80 174q-135 0 -438 -174l-70 -637h-196l117 944h191l-25 -176q382 176 525 176q210 0 186 -176l-117 -811z" />
    <glyph glyph-name="uni2D05" unicode="&#x2d05;" horiz-adv-x="1865" 
d="M1042 -483h-203l-85 615l108 680q25 174 -79 174q-146 0 -432 -174l-81 -812h-190l116 1119h192l-20 -176q376 176 517 176q202 0 179 -176q364 176 511 176q213 0 190 -176l-158 -943h-193l137 812q25 174 -86 174q-145 0 -421 -174l-107 -680z" />
    <glyph glyph-name="uni2D06" unicode="&#x2d06;" horiz-adv-x="1283" 
d="M969 811q25 174 -80 174q-144 0 -439 -174l-79 -562q-21 -134 74 -133q212 0 335 56q107 66 127 192zM1098 361q-39 -247 -346 -313q-264 -65 -400 -65q-211 0 -187 175l106 726l104 324h-182q-176 0 -193 230v233h198v-253q9 -107 115 -107h87l15 54h176l-122 -423
q379 177 523 177q211 0 186 -177z" />
    <glyph glyph-name="uni2D07" unicode="&#x2d07;" horiz-adv-x="1949" 
d="M937 812q28 174 -73 174q-143 0 -468 -178l-82 -502q-26 -174 88 -174q141 -2 456 174zM1153 943q361 176 503 176q212 0 188 -176l-155 -943h-190l135 812q24 174 -80 174q-144 0 -420 -174l-130 -812h-184l30 200q-389 -200 -560 -200q-218 0 -182 175l144 944h191
l-27 -180q409 180 552 180q214 0 185 -176z" />
    <glyph glyph-name="uni2D08" unicode="&#x2d08;" horiz-adv-x="1219" 
d="M958 0h-191l136 812q25 174 -79 174q-147 0 -439 -174l-53 -367h-190l94 674h192l-23 -176q385 176 522 176q248 0 209 -187z" />
    <glyph glyph-name="uni2D09" unicode="&#x2d09;" horiz-adv-x="1243" 
d="M929 812q31 174 -80 174q-144 0 -457 -174l-78 -523q-24 -174 89 -174q175 0 453 191zM1026 149l109 -631h-205l-93 657q-374 -192 -546 -192q-211 0 -187 175l144 995l-73 518h211l52 -529l-29 -199q402 176 543 176q211 0 187 -176z" />
    <glyph glyph-name="uni2D0A" unicode="&#x2d0a;" horiz-adv-x="1953" 
d="M1637 812q25 174 -86 174q-130 0 -462 -157l-78 -523q-26 -174 83 -174q136 0 465 174zM1703 0h-193l28 191q-391 -191 -578 -191q-183 0 -159 175l91 637q25 174 -77 174q-121 -2 -449 -174l-95 -812h-191l136 1119h193l-25 -176q400 176 542 176q200 0 177 -179
q406 179 582 179q194 1 164 -176z" />
    <glyph glyph-name="uni2D0B" unicode="&#x2d0b;" horiz-adv-x="1269" 
d="M930 987q-529 -45 -549 -176l-69 -485q-29 -245 153 -245q115 0 236 59q120 61 133 170zM1121 986l-99 -709q-24 -160 -216 -224q-187 -64 -397 -70q-329 6 -300 257l86 605q25 166 744 273l-38 257q-20 114 -94 114q-93 0 -199.5 -64.5t-228.5 -64.5q-149 0 -149 149
v162h215v-119q0 -63 55 -63q83 0 172 62t203 62q172 0 207 -192l49 -301h88v-134h-98z" />
    <glyph glyph-name="uni2D0C" unicode="&#x2d0c;" horiz-adv-x="1219" 
d="M950 0h-192l147 812q24 174 -81 174q-144 0 -438 -174l-115 -812h-191l153 1080l-34 211q0 380 416 380q389 0 391 -161v-123h-188v97q-2 65 -175 65q-254 0 -254 -163l32 -327l-17 -116q382 176 524 176q219 1 187 -176z" />
    <glyph glyph-name="uni2D0D" unicode="&#x2d0d;" horiz-adv-x="1897" 
d="M812 175q-366 -175 -522 -175q-210 0 -186 175l166 944h190l-147 -813q-26 -174 88 -174q157 0 420 174l135 813h192l-138 -813q-21 -174 71 -174q157 0 439 174l105 813h192l-147 -1119h-193l25 175q-384 -175 -522 -175q-190 0 -168 175z" />
    <glyph glyph-name="uni2D0E" unicode="&#x2d0e;" horiz-adv-x="1218" 
d="M812 175q-366 -175 -522 -175q-210 0 -186 175l154 944h192l-137 -813q-26 -174 88 -174q157 0 430 174l115 813h192l-156 -1119h-194z" />
    <glyph glyph-name="uni2D0F" unicode="&#x2d0f;" horiz-adv-x="1651" 
d="M1538 -482h-210l-76 536l15 78q-323 -132 -467 -132q-202 0 -174 193l66 442q-276 -136 -403 -136q-169 0 -147 151l92 471h206l-78 -326q-30 -143 86 -143q50 0 264 115h190l-81 -541q-13 -94 53 -94q127 0 406 121l105 732l-122 686h204l104 -729l-127 -882z" />
    <glyph glyph-name="uni2D10" unicode="&#x2d10;" horiz-adv-x="1907" 
d="M821 306l109 768l-84 597h205l64 -607l-12 -121q370 176 511 176q213 0 189 -176l-156 -943h-190l135 812q24 174 -80 174q-144 0 -426 -174l-115 -812h-192l23 175q-356 -175 -512 -175q-210 0 -186 175l152 944h195l-138 -813q-26 -174 88 -174q157 0 420 174z" />
    <glyph glyph-name="uni2D11" unicode="&#x2d11;" horiz-adv-x="1197" 
d="M237 1121l-77 550h220l55 -553l-112 -812q-26 -174 78 -174q157 0 420 174l94 813h202l-136 -1119h-202l23 175q-356 -175 -512 -175q-210 0 -186 175z" />
    <glyph glyph-name="uni2D12" unicode="&#x2d12;" horiz-adv-x="1213" 
d="M904 811q27 174 -79 174q-143 0 -438 -174l-101 -711q508 75 531 233zM1005 306q-33 -236 -733 -306q-27 -155 31.5 -254t210.5 -99q142 0 348 186l99 -133q-194 -182 -482 -182q-262 0 -344.5 163t-32.5 471l138 967h189l-21 -177q376 177 521 177q214 1 169 -308z" />
    <glyph glyph-name="uni2D13" unicode="&#x2d13;" horiz-adv-x="1891" 
d="M1502 175q-384 -175 -522 -175q-200 0 -178 175q-356 -175 -512 -175q-210 0 -186 175l164 944h192l-147 -813q-26 -174 88 -174q157 0 420 174l135 813h192l-138 -813q-21 -174 71 -174q157 0 439 174l104 812l-36 236h203l20 -281l-120 -919l109 -636h-208z" />
    <glyph glyph-name="uni2D14" unicode="&#x2d14;" horiz-adv-x="1951" 
d="M925 877q14 110 -97 108q-158 1 -439 -175l-71 -505q-26 -173 86 -173q175 0 441 174zM1634 812q25 175 -100 175q-89 -1 -426 -176l-72 -506q-24 -174 117 -175q149 0 408 175zM1710 0h-183l26 175q-298 -175 -448 -175l-116 45l-9 -59l85 -468h-206l-64 460l26 197
q-259 -175 -530 -175q-212 0 -168 305l116 814h191l-24 -177q339 177 551 177q192 0 168 -177q336 177 551 177q195 0 150 -307z" />
    <glyph glyph-name="uni2D15" unicode="&#x2d15;" horiz-adv-x="1695" 
d="M877 111l103 -593h-206l-81 594l54 388l-422 -123l-29 -237h-196l123 879h199l-79 -520l422 134l66 443l-85 595h194l69 -645l-51 -341l416 120l28 192h203l-123 -865h-204l80 540l-420 -126z" />
    <glyph glyph-name="uni2D16" unicode="&#x2d16;" horiz-adv-x="1220" 
d="M406 943q379 176 521 176q213 0 189 -176l-155 -943h-201l135 812q24 174 -70 174q-144 0 -439 -174l-113 -812h-193l158 1119h191z" />
    <glyph glyph-name="uni2D17" unicode="&#x2d17;" horiz-adv-x="1218" 
d="M782 175q-337 -175 -492 -175q-210 0 -186 175l148 944h190l-129 -813q-26 -174 88 -174q157 0 400 174l136 814h201l-156 -960l131 -642h-218z" />
    <glyph glyph-name="uni2D18" unicode="&#x2d18;" horiz-adv-x="1208" 
d="M799 165q-356 -165 -509 -165q-210 0 -186 175l152 944h194l-137 -813q-26 -174 88 -174q157 0 430 174l105 813h192l-114 -879q-59 -425 -292 -573.5t-526 -148.5h-85v139h73q231 0 403.5 111.5t211.5 396.5z" />
    <glyph glyph-name="uni2D19" unicode="&#x2d19;" horiz-adv-x="1212" 
d="M380 812l-106 -742l99 -552h-218l-75 533l151 1080l-74 540h196l61 -589l-15 -139q379 176 520 176q213 0 189 -176l-139 -943h-189l116 812q24 174 -80 174q-144 0 -436 -174z" />
    <glyph glyph-name="uni2D1A" unicode="&#x2d1a;" horiz-adv-x="1212" 
d="M603 -355q119 0 322 173l88 -122q-208 -178 -426 -178q-251 -2 -394 151.5t-107 399.5l146 1051h189l-27 -177q296 176 526 176q212 0 169 -307l-130 -742h-190l126 742q25 174 -138 174q-115 0 -380 -174l-101 -743q-30 -206 50.5 -315t276.5 -109z" />
    <glyph glyph-name="uni2D1B" unicode="&#x2d1b;" horiz-adv-x="1271" 
d="M918 1008q-516 -39 -540 -220l-67 -462q-31 -214 174 -214q312 0 337 178zM1221 985h-105l-100 -676q-44 -282 -593 -327q-343 0 -301 344l62 442q39 283 745 350l-106 553h210l75 -551h112z" />
    <glyph glyph-name="uni2D1C" unicode="&#x2d1c;" horiz-adv-x="1885" 
d="M756 0l115 812q27 174 -68 174q-145 0 -433 -174l-96 -779l92 -515h-218l-68 482l136 1120h192l-20 -177q373 177 517 177q201 0 179 -177q361 177 511 177q209 0 187 -177l-155 -943h-194l137 812q27 174 -86 174q-144 0 -421 -174l-116 -812h-191z" />
    <glyph glyph-name="uni2D1D" unicode="&#x2d1d;" horiz-adv-x="1207" 
d="M1058 547h-192l41 264q21 174 -82 174q-144 0 -436 -177l-93 -617q234 115 385 114q435 0 435 -371q0 -418 -588 -416q-233 -1 -468 80l30 190q221 -122 450 -122q416 0 416 276q-7 223 -303 223q-179 0 -376 -110h-197l157 1064h198l-29 -177q300 178 523 177
q208 1 166 -308z" />
    <glyph glyph-name="uni2D1E" unicode="&#x2d1e;" horiz-adv-x="1201" 
d="M712 -482q-712 -1 -616 578l148 1023h190l-139 -987q517 0 550 240l84 747h192l-94 -813q-36 -257 -747 -286q-55 -373 432 -373v-129z" />
    <glyph glyph-name="uni2D1F" unicode="&#x2d1f;" horiz-adv-x="1190" 
d="M338 643q36 -171 155 -387q429 220 430 686q-309 -100 -551 -100q-280 0 -296 237l-6 82h216l8 -109q6 -81 167 -81q353 0 498 148h161q-21 -654 -544 -976q214 -174 390 -234l-59 -137q-257 122 -442 298q-203 -190 -169 -552h-194q2 471 278 662q-155 203 -199 451z
" />
    <glyph glyph-name="uni2D20" unicode="&#x2d20;" horiz-adv-x="1872" 
d="M1656 0h-194l24 175q-362 -175 -521 -175q-202 0 -158 306l73 505q23 174 -84 174q-131 0 -419 -174l-102 -810h-195l142 1118h191l-22 -177q288 177 516 177q208 0 183 -177l-90 -636q-24 -174 79 -174q105 0 428 174l94 813h191z" />
    <glyph glyph-name="uni2D21" unicode="&#x2d21;" horiz-adv-x="1220" 
d="M904 812q27 174 -78 174q-124 0 -438 -170l-93 -641l514 -657h-246l-463 614l179 1216q42 323 410 323h174v-138h-234q-145 0 -172 -185l-50 -392q376 163 530 164q203 -2 178 -177l-94 -544h-192z" />
    <glyph glyph-name="uni2D22" unicode="&#x2d22;" horiz-adv-x="1218" 
d="M1023 306q-44 -306 -640 -306q-303 0 -261 306l35 264h203l-38 -265q-26 -173 171 -173q312 0 339 185l79 562q22 154 -300 57t-321 134v212h208v-164q-2 -118 132 -59q133 60 267 60q241 0 205 -252z" />
    <glyph glyph-name="uni2D23" unicode="&#x2d23;" horiz-adv-x="1213" 
d="M995 132l110 -614h-220l-79 549l2 108q-368 -175 -523 -175q-205 0 -161 305l138 814h190l-140 -814q-23 -173 112 -173q104 -2 402 173l115 801l-78 565h211l59 -563z" />
    <glyph glyph-name="uni2D24" unicode="&#x2d24;" horiz-adv-x="1314" 
d="M1093 70h-189l8 95l-212 -69l109 -578h-203l-74 533q-197 -51 -261 -51q-191 0 -167 175l144 944h194l-134 -844q-20 -143 123 -143q127 0 497 153l111 834h195z" />
    <glyph glyph-name="uni2D25" unicode="&#x2d25;" horiz-adv-x="1845" 
d="M917 985q-514 -43 -540 -232l-66 -464q-24 -178 147 -178q327 0 355 178zM1604 110h-189l115 701q28 202 -73 193l-353 -21l-102 -694q-41 -306 -624 -306q-298 0 -256 306l73 537q28 193 736 250v338q-2 258 395 258q343 -2 344 -192v-77h-202v63q-1 91 -170 90
q-192 0 -190 -150v-326l350 39q307 0 265 -288z" />
    <glyph glyph-name="uniF429" unicode="&#xf429;" horiz-adv-x="1655" 
d="M875 1747q1 -164 172 -305t171 -312q0 -102 -30 -171q367 -20 367 -488q-21 -480 -419 -500q-414 20 -434 511q0 102 60 244l-70 10q-106 9 -191 101q-221 -55 -221 -382q0 -340 357 -513q555 -192 560 -414h-219q-11 168 -399 257q-150 -3 -266 -155l-122 108
q107 103 263 150q-354 233 -354 555q0 447 314 503q-36 77 -36 194l38 177l160 -56l-24 -121q0 -142 75.5 -214t172.5 -72q111 0 175 68.5t64 207.5q-1 122 -171 263.5t-170 353.5h177zM1375 481q0 338 -239 338q-31 0 -58 -5q-54 -52 -142 -78q-67 -93 -67 -254
q10 -363 267 -373q229 10 239 372z" />
    <glyph glyph-name="uniF42A" unicode="&#xf42a;" 
d="M217 1566h598v-148h-598v148zM940 426q0 -456 -421 -456q-419 0 -419 446l39 208h176l-35 -208q0 -306 242 -306q239 0 239 316q-1 221 -196 348t-195 348h187q2 -173 192 -299q191 -126 191 -397z" />
    <glyph glyph-name="uniF42B" unicode="&#xf42b;" 
d="M588 1592h203v-202h-203v202zM197 1592h203v-202h-203v202zM940 426q0 -456 -421 -456q-419 0 -419 446l39 208h176l-35 -208q0 -306 242 -306q239 0 239 316q-1 221 -196 348t-195 348h187q2 -173 192 -299q191 -126 191 -397z" />
    <glyph glyph-name="uniF42C" unicode="&#xf42c;" 
d="M940 426q0 -456 -421 -456q-419 0 -419 446l39 208h176l-35 -208q0 -306 242 -306q239 0 239 316q-1 221 -196 348t-195 348h187q2 -173 192 -299q191 -126 191 -397zM185 1391h598v-148h-598v148zM578 1792h203v-202h-203v202zM187 1792h203v-202h-203v202z" />
    <glyph glyph-name="uniF42D" unicode="&#xf42d;" 
d="M551 1676h235l-258 -264h-173zM940 426q0 -456 -421 -456q-419 0 -419 446l39 208h176l-35 -208q0 -306 242 -306q239 0 239 316q-1 221 -196 348t-195 348h187q2 -173 192 -299q191 -126 191 -397z" />
    <glyph glyph-name="uniF42E" unicode="&#xf42e;" 
d="M551 1816h185l-228 -264h-153zM205 1431h598v-148h-598v148zM940 426q0 -456 -421 -456q-419 0 -419 446l39 208h176l-35 -208q0 -306 242 -306q239 0 239 316q-1 221 -196 348t-195 348h187q2 -173 192 -299q191 -126 191 -397z" />
    <glyph glyph-name="uniF42F" unicode="&#xf42f;" 
d="M808 1657q-19 -287 -313 -287t-313 287h118q25 -150 195 -150q172 0 195 150h118zM940 426q0 -456 -421 -456q-419 0 -419 446l39 208h176l-35 -208q0 -306 242 -306q239 0 239 316q-1 221 -196 348t-195 348h187q2 -173 192 -299q191 -126 191 -397z" />
    <glyph glyph-name="uniF430" unicode="&#xf430;" 
d="M267 1566h598v-148h-598v148zM920 -63q0 -420 -396 -420q-424 0 -424 422l33 225h172l-25 -227q0 -280 244 -280q226 0 226 278v787q0 258 -225 258q-200 0 -200 -244l55 -226h-172l-49 220q0 390 366 390q395 0 395 -401v-782z" />
    <glyph glyph-name="uniF431" unicode="&#xf431;" 
d="M621 1636h235l-258 -264h-173zM920 -63q0 -420 -396 -420q-424 0 -424 422l33 225h172l-25 -227q0 -280 244 -280q226 0 226 278v787q0 258 -225 258q-200 0 -200 -244l55 -226h-172l-49 220q0 390 366 390q395 0 395 -401v-782z" />
    <glyph glyph-name="uniF432" unicode="&#xf432;" 
d="M601 1846h215l-228 -264h-183zM255 1461h598v-148h-598v148zM920 -63q0 -420 -396 -420q-424 0 -424 422l33 225h172l-25 -227q0 -280 244 -280q226 0 226 278v787q0 258 -225 258q-200 0 -200 -244l55 -226h-172l-49 220q0 390 366 390q395 0 395 -401v-782z" />
    <glyph glyph-name="uniF433" unicode="&#xf433;" 
d="M848 1657q-19 -287 -313 -287t-313 287h118q25 -150 195 -150q172 0 195 150h118zM920 -63q0 -420 -396 -420q-424 0 -424 422l33 225h172l-25 -227q0 -280 244 -280q226 0 226 278v787q0 258 -225 258q-200 0 -200 -244l55 -226h-172l-49 220q0 390 366 390
q395 0 395 -401v-782z" />
    <glyph glyph-name="uniF434" unicode="&#xf434;" horiz-adv-x="1060" 
d="M960 580q0 -268 -153 -580h-173q146 289 146 580q0 400 -246 400q-254 0 -254 -403q0 -288 145 -577h-174q-151 314 -151 583q0 537 434 537q426 0 426 -540zM247 1566h598v-148h-598v148z" />
    <glyph glyph-name="uniF435" unicode="&#xf435;" horiz-adv-x="1060" 
d="M960 580q0 -268 -153 -579h-173q146 288 146 579q0 400 -246 400q-254 0 -254 -403q0 -288 145 -577h-174q-151 314 -151 583q0 537 434 537q426 0 426 -540zM631 1636h225l-258 -264h-163z" />
    <glyph glyph-name="uniF436" unicode="&#xf436;" horiz-adv-x="1060" 
d="M960 580q0 -268 -153 -579h-173q146 288 146 579q0 400 -246 400q-254 0 -254 -403q0 -288 145 -577h-174q-151 314 -151 583q0 537 434 537q426 0 426 -540zM848 1657q-19 -287 -313 -287t-313 287h118q25 -150 195 -150q172 0 195 150h118z" />
    <glyph glyph-name="uniF437" unicode="&#xf437;" horiz-adv-x="1611" 
d="M1510 598q1 -303 -274 -598h-209q303 278 303 598q-1 382 -211 382q-231 0 -231 -345v-210h-166v210q0 345 -231 345q-211 0 -211 -382q-1 -307 311 -599h-209q-282 292 -282 599q0 522 392 522q225 0 312 -227q98 227 318 227q389 0 388 -522zM507 1566h598v-148h-598
v148z" />
    <glyph glyph-name="uniF438" unicode="&#xf438;" horiz-adv-x="1611" 
d="M1510 598q1 -303 -274 -598h-209q303 278 303 598q-1 382 -211 382q-231 0 -231 -345v-210h-166v210q0 345 -231 345q-211 0 -211 -382q-1 -307 311 -599h-209q-282 292 -282 599q0 522 392 522q225 0 312 -227q98 227 318 227q389 0 388 -522zM898 1592h203v-202h-203
v202zM507 1592h203v-202h-203v202z" />
    <glyph glyph-name="uniF439" unicode="&#xf439;" horiz-adv-x="1611" 
d="M1510 598q1 -303 -274 -598h-209q303 278 303 598q-1 382 -211 382q-231 0 -231 -345v-210h-166v210q0 345 -231 345q-211 0 -211 -382q-1 -307 311 -599h-209q-282 292 -282 599q0 522 392 522q225 0 312 -227q98 227 318 227q389 0 388 -522zM505 1431h598v-148h-598
v148zM898 1832h203v-202h-203v202zM507 1832h203v-202h-203v202z" />
    <glyph glyph-name="uniF43A" unicode="&#xf43a;" horiz-adv-x="1611" 
d="M1510 598q1 -303 -274 -598h-209q303 278 303 598q-1 382 -211 382q-231 0 -231 -345v-210h-166v210q0 345 -231 345q-211 0 -211 -382q-1 -307 311 -599h-209q-282 292 -282 599q0 522 392 522q225 0 312 -227q98 227 318 227q389 0 388 -522zM861 1636h225l-258 -264
h-163z" />
    <glyph glyph-name="uniF43B" unicode="&#xf43b;" horiz-adv-x="1611" 
d="M1510 598q1 -303 -274 -598h-209q303 278 303 598q-1 382 -211 382q-231 0 -231 -345v-210h-166v210q0 345 -231 345q-211 0 -211 -382q-1 -307 311 -599h-209q-282 292 -282 599q0 522 392 522q225 0 312 -227q98 227 318 227q389 0 388 -522zM1138 1657
q-19 -287 -313 -287t-313 287h118q25 -150 195 -150q172 0 195 150h118z" />
    <glyph glyph-name="uniF43C" unicode="&#xf43c;" horiz-adv-x="1119" 
d="M237 1566h598v-148h-598v148zM1000 -64q0 -419 -402 -419q-441 0 -441 419l25 227h178l-23 -227q0 -279 261 -279q232 0 232 279v871q-2 182 -137 182q-123 0 -123 -140l-10 -347h-143l-10 347q0 120 -156 120h-82l-109 40l20 161l87 -50h80q143 0 222 -187
q67 187 227 187q304 0 304 -313v-871z" />
    <glyph glyph-name="uniF43D" unicode="&#xf43d;" horiz-adv-x="1119" 
d="M628 1592h203v-202h-203v202zM237 1592h203v-202h-203v202zM1000 -64q0 -419 -402 -419q-441 0 -441 419l25 227h178l-23 -227q0 -279 261 -279q232 0 232 279v871q-2 182 -137 182q-123 0 -123 -140l-10 -347h-143l-10 347q0 120 -156 120h-82l-109 40l20 161l87 -50h80
q143 0 222 -187q67 187 227 187q304 0 304 -313v-871z" />
    <glyph glyph-name="uniF43E" unicode="&#xf43e;" horiz-adv-x="1119" 
d="M235 1451h598v-148h-598v148zM628 1852h203v-202h-203v202zM237 1852h203v-202h-203v202zM1000 -64q0 -419 -402 -419q-441 0 -441 419l25 227h178l-23 -227q0 -279 261 -279q232 0 232 279v871q-2 182 -137 182q-123 0 -123 -140l-10 -347h-143l-10 347q0 120 -156 120
h-82l-109 40l20 161l87 -50h80q143 0 222 -187q67 187 227 187q304 0 304 -313v-871z" />
    <glyph glyph-name="uniF43F" unicode="&#xf43f;" horiz-adv-x="1119" 
d="M601 1636h215l-248 -264h-163zM1000 -64q0 -419 -402 -419q-441 0 -441 419l25 227h178l-23 -227q0 -279 261 -279q232 0 232 279v871q-2 182 -137 182q-123 0 -123 -140l-10 -347h-143l-10 347q0 120 -156 120h-82l-109 40l20 161l87 -50h80q143 0 222 -187
q67 187 227 187q304 0 304 -313v-871z" />
    <glyph glyph-name="uniF440" unicode="&#xf440;" horiz-adv-x="1119" 
d="M838 1657q-19 -287 -313 -287t-313 287h118q25 -150 195 -150q172 0 195 150h118zM1000 -64q0 -419 -402 -419q-441 0 -441 419l25 227h178l-23 -227q0 -279 261 -279q232 0 232 279v871q-2 182 -137 182q-123 0 -123 -140l-10 -347h-143l-10 347q0 120 -156 120h-82
l-109 40l20 161l87 -50h80q143 0 222 -187q67 187 227 187q304 0 304 -313v-871z" />
    <glyph glyph-name="uniF441" unicode="&#xf441;" horiz-adv-x="1119" 
d="M600 1745l245 -376h-139l-180 245l-180 -245h-139l245 376h148zM1000 -64q0 -419 -402 -419q-441 0 -441 419l25 227h178l-23 -227q0 -279 261 -279q232 0 232 279v871q-2 182 -137 182q-123 0 -123 -140l-10 -347h-143l-10 347q0 120 -156 120h-82l-109 40l20 161
l87 -50h80q143 0 222 -187q67 187 227 187q304 0 304 -313v-871z" />
    <glyph glyph-name="uni1C90" unicode="&#x1c90;" horiz-adv-x="1280" 
d="M1165 617v-73q0 -599 -513 -599q-537 0 -537 630q0 157 73 370h247q-80 -235 -80 -370q0 -465 297 -465q274 0 274 437v70q0 328 -242 549.5t-252 553.5h255q-9 -294 234.5 -531.5t243.5 -571.5z" />
    <glyph glyph-name="uni1C91" unicode="&#x1c91;" horiz-adv-x="1281" 
d="M925 657q0 413 -288 413q-282 0 -282 -413v-78q0 -469 280 -469q290 0 290 464v83zM1166 634v-32q0 -658 -529 -657q-522 0 -522 657v37q0 526 452 596q59 136 -99.5 224.5t-160.5 260.5h261q0 -117 119 -192.5t80 -297.5q399 -95 399 -596z" />
    <glyph glyph-name="uni1C92" unicode="&#x1c92;" horiz-adv-x="1348" 
d="M996 637q0 433 -314 433q-333 0 -333 -427v-75q0 -458 328 -458q319 0 319 458v69zM1233 645v-66q0 -636 -561 -636q-555 0 -555 620v102q-2 550 543 570h65q84 85 84 176q1 164 -181 164q-171 0 -171 -162v-37h-235v36q0 328 403 328q408 0 408 -312q0 -121 -104 -235
q304 -103 304 -548z" />
    <glyph glyph-name="uni1C93" unicode="&#x1c93;" horiz-adv-x="1924" 
d="M880 339q535 0 646 -372h-282q-28 204 -364 204q-334 0 -515 -171l-69 179q72 68 190 107q-371 329 -371 864v43q0 538 443 538q173 0 361 -162q108 172 382 172q508 0 508 -569v-92q-2 -605 -508 -608q-504 0 -504 638v29q0 104 38 237q-110 187 -269 187
q-211 0 -211 -350v-80q0 -512 350 -802zM1571 1124q0 451 -270 451q-263 0 -264 -419v-60q0 -459 266 -459t268 435v52z" />
    <glyph glyph-name="uni1C94" unicode="&#x1c94;" horiz-adv-x="1277" 
d="M1147 468q0 -524 -514 -524q-517 0 -517 526q-1 179 97 328h249q-107 -185 -107 -328q1 -361 285 -361q276 0 276 368v788q11 310 -262 310q-239 0 -239 -254q0 -114 61 -256h-243q-55 109 -55 260q0 415 491 415q476 0 477 -488z" />
    <glyph glyph-name="uni1C95" unicode="&#x1c95;" horiz-adv-x="1280" 
d="M1123 1329q-8 -254 -218 -346q260 -142 260 -444v-83q0 -512 -528 -511q-522 0 -522 533q0 107 81 321h241q-83 -206 -83 -334q-1 -355 294 -355q277 0 277 355v74q0 341 -221 344h-84v176h79q184 -1 184 265q0 251 -241 251q-241 -1 -244 -231q-1 -92 56 -205h-239
q-43 87 -45 209q0 392 472 392q481 0 481 -411z" />
    <glyph glyph-name="uni1C96" unicode="&#x1c96;" horiz-adv-x="1322" 
d="M653 1383q0 191 -198 191q-156 0 -156 -198q0 -144 95 -209q54 47 210 58q49 80 49 158zM962 662q0 413 -288 408q-282 5 -282 -411v-89q0 -458 275 -460q295 2 295 452v100zM1203 657v-81q0 -631 -536 -631q-514 0 -514 642v75q-5 258 115 379q-208 124 -208 339
q0 360 402 360q419 0 419 -356q1 -69 -46 -159q372 -96 368 -568z" />
    <glyph glyph-name="uni1C97" unicode="&#x1c97;" horiz-adv-x="1961" 
d="M910 1191q0 382 -269 382q-282 0 -282 -382v-671q0 -410 282 -410q269 0 269 390v691zM1612 -34h-297q287 249 287 662v593q0 353 -242 352q-219 1 -219 -312v-761q0 -555 -511 -555q-500 0 -500 575v671q0 549 511 549q263 0 354 -210q103 210 365 210q470 0 471 -519
v-623q0 -423 -219 -632z" />
    <glyph glyph-name="uni1C98" unicode="&#x1c98;" horiz-adv-x="1291" 
d="M1161 725q0 -419 -167 -759h-248q183 275 183 759v419q0 430 -282 430q-287 0 -287 -430v-419q0 -472 197 -759h-249q-178 334 -178 759v419q0 596 518 596q513 0 513 -596v-419z" />
    <glyph glyph-name="uni1C99" unicode="&#x1c99;" horiz-adv-x="1281" 
d="M1123 1307q-8 -242 -215 -319q258 -85 258 -431v-101q0 -512 -501 -511q-550 0 -550 543q0 137 72 310h253q-85 -165 -85 -323q0 -365 291 -365q278 1 278 395v47q0 338 -170 341h-204v196h134q200 -1 200 213q0 233 -264 418h318q180 -165 185 -413z" />
    <glyph glyph-name="uni1C9A" unicode="&#x1c9a;" horiz-adv-x="2431" 
d="M1100 343q685 0 796 -377h-312q-28 204 -484 204q-504 0 -685 -141l-69 179q81 65 259 99q-490 335 -490 908q0 524 450 525q231 -1 350 -156q60 156 300 156q184 -1 300 -156q99 156 342 156q459 0 459 -515q0 -453 -256 -706h-288q307 275 307 701q1 354 -220 354
q-250 0 -250 -253v-483h-196v483q0 253 -203 253q-195 -2 -195 -253v-483h-198v483q-2 253 -250 253q-213 0 -212 -356q-1 -577 524 -881q102 6 221 6z" />
    <glyph glyph-name="uni1C9B" unicode="&#x1c9b;" horiz-adv-x="1295" 
d="M935 490v479q-105 101 -270 101q-313 0 -312 -350v-187q0 -423 310 -423q272 0 272 380zM1165 500q0 -555 -502 -555q-548 0 -548 580v181q0 529 522 529q178 0 298 -81v141q0 279 -270 279q-259 -1 -259 -184h-230q1 349 481 350q508 0 508 -446v-794z" />
    <glyph glyph-name="uni1C9C" unicode="&#x1c9c;" horiz-adv-x="1296" 
d="M940 706q0 364 -288 364q-172 0 -293 -86v-481q0 -393 299 -393q282 0 282 355v241zM1181 713v-222q0 -546 -533 -547q-518 1 -518 547v812q0 418 367 418h559v-203l-554 20q-143 0 -143 -239v-144q149 80 293 80q529 0 529 -522z" />
    <glyph glyph-name="uni1C9D" unicode="&#x1c9d;" horiz-adv-x="1877" 
d="M1747 651q0 -461 -301 -686h-305q380 252 380 667v509q0 434 -227 434q-244 0 -244 -344v-621h-218v631q0 334 -236 334t-236 -434v-509q0 -416 327 -667h-286q-271 225 -271 687v489q0 599 471 599q215 0 339 -215q128 215 354 215q453 0 453 -599v-490z" />
    <glyph glyph-name="uni1C9E" unicode="&#x1c9e;" horiz-adv-x="1281" 
d="M1166 527v-80q0 -502 -504 -502q-547 0 -547 548q0 162 52 305h250q-61 -133 -62 -305q1 -382 310 -382q259 0 259 340v74q0 362 -265 361h-106v172h115q227 0 227 196q0 141 -255.5 198t-255.5 269h279q2 -126 237.5 -182.5t235.5 -269.5q0 -216 -223 -309
q233 -71 253 -433z" />
    <glyph glyph-name="uni1C9F" unicode="&#x1c9f;" horiz-adv-x="1296" 
d="M1166 471q0 -526 -530 -526q-521 2 -521 524q0 160 77 329h256q-93 -172 -93 -329q0 -358 281 -360q299 2 299 364v1097l-410 -31q254 -87 254 -299q0 -291 -340 -293q-155 1 -324 63v231q190 -117 319 -117q148 0 148 138q0 154 -357 256v174l941 47v-1268z" />
    <glyph glyph-name="uni1CA0" unicode="&#x1ca0;" horiz-adv-x="1967" 
d="M1852 764v-72q0 -450 -348 -727h-312q412 327 412 717v109q0 312 -235 314q-274 0 -275 -276v-342h-216v342q0 275 -290 275q-233 0 -233 -313v-119q0 -387 425 -707h-307q-358 277 -358 727v67q0 416 290 714q292 267 1043 267v-220q-867 40 -1008 -294l132 55
q279 0 421 -218q127 218 357 218q501 0 502 -517z" />
    <glyph glyph-name="uni1CA1" unicode="&#x1ca1;" horiz-adv-x="1295" 
d="M1180 512q0 -568 -533 -568q-517 0 -517 587v1189h230v-1196q0 -414 290 -414t290 386q-2 206 -154.5 372t-152.5 347q0 60 12 142h247q-15 -87 -15 -146q0 -154 151 -309t152 -390z" />
    <glyph glyph-name="uni1CA2" unicode="&#x1ca2;" horiz-adv-x="1519" 
d="M540 1533q-140 -68 -162.5 -213t-22.5 -308v-348q1 -266 84.5 -409.5t322.5 -143.5q238 0 321 143t83 410v345q0 297 -88 408t-246 114l21 -824h-213l7 811l-10 222h195v-32q330 -22 451 -217t120 -477v-356q1 -315 -141 -514t-504 -199q-342 0 -492.5 197t-150.5 516
v355q0 291 85 471t340 225v-176z" />
    <glyph glyph-name="uni1CA3" unicode="&#x1ca3;" horiz-adv-x="1298" 
d="M1166 1338v-868q2 -525 -532 -525q-519 0 -519 528q1 177 99 326h248q-107 -185 -107 -326q1 -363 286 -363q294 0 294 370v917q0 177 -131 178q-154 -2 -152 -179v-337h-200v333q0 172 -147 172h-190v176h230q119 0 203 -133q81 133 251 133q369 0 367 -402z" />
    <glyph glyph-name="uni1CA4" unicode="&#x1ca4;" horiz-adv-x="1906" 
d="M862 1183q0 391 -253 391q-254 0 -254 -386v-115q0 -414 268 -414q239 0 239 414v110zM1763 470q-1 -242 -173.5 -383.5t-439.5 -141.5h-126q-231 1 -399.5 96.5t-205.5 231.5l223 97q51 -159 151 -209.5t245 -50.5h99q180 0 284.5 98t102.5 261q2 272 -155 272h-114v156
h100q198 0 198 348q0 323 -250 323q-151 0 -239 -134q40 -117 37 -272v-89q0 -579 -477 -578q-509 -1 -509 578v115q0 553 490 553q261 0 336 -146q171 136 367 136q483 0 483 -478q0 -296 -226 -437q198 -71 198 -346z" />
    <glyph glyph-name="uni1CA5" unicode="&#x1ca5;" horiz-adv-x="1296" 
d="M1166 475q-1 -530 -533 -530q-518 0 -518 508q0 161 92 345h261q-113 -184 -113 -353q0 -334 287 -334q293 0 293 369v631q-209 404 -380 405q-149 0 -149 -180q0 -113 54 -250h-246q-37 144 -37 250q1 356 348 355q226 0 410 -241v271h231v-1246z" />
    <glyph glyph-name="uni1CA6" unicode="&#x1ca6;" horiz-adv-x="1925" 
d="M880 338q535 0 646 -362l-272 -10q-28 204 -374 204q-334 0 -515 -141l-69 189q85 60 234 90q-415 365 -415 913q0 519 479 519q229 0 371 -197q128 197 370 197q474 0 475 -595q-2 -242 -182 -587h-281q226 332 226 582q0 435 -234 435q-268 0 -268 -328v-380h-214v380
q1 328 -263 328q-239 0 -239 -354q0 -547 457 -884q33 1 68 1z" />
    <glyph glyph-name="uni1CA7" unicode="&#x1ca7;" horiz-adv-x="1295" 
d="M1165 1723v-1254q0 -524 -489 -524q-561 0 -561 505q0 114 53 235h253q-65 -135 -65 -235q-2 -339 307 -339q270 0 272 359v405q-100 -91 -291 -91q-496 -3 -496 509q0 219 162 430h287q-206 -234 -206 -419q0 -361 245 -360q199 -1 298 131v648h231z" />
    <glyph glyph-name="uni1CA8" unicode="&#x1ca8;" horiz-adv-x="1297" 
d="M935 1438q0 136 -140 136q-136 0 -136 -110v-103h-199v103q0 110 -130 110l-215 -44v210h176q182 0 271 -140q83 140 258 140q346 0 346 -360v-870q1 -565 -503 -565q-548 0 -548 555v181q0 534 522 534q191 0 298 -80v303zM935 490v456q-90 103 -270 103
q-310 0 -310 -351v-187q0 -400 308 -403q272 3 272 382z" />
    <glyph glyph-name="uni1CA9" unicode="&#x1ca9;" horiz-adv-x="1295" 
d="M682 1352v95q3 127 -159 127q-163 0 -163 -213v-204q120 78 315 78q505 0 505 -600q0 -372 -208 -670h-277q245 333 245 688q0 428 -265 428q-195 0 -315 -97v-1019h-230v1301q0 474 370 474q415 0 416 -293l-6 -95h-228z" />
    <glyph glyph-name="uni1CAA" unicode="&#x1caa;" horiz-adv-x="1329" 
d="M1173 1253q2 -178 -183 -284q224 -84 224 -380v-134q0 -238 -132.5 -374t-397.5 -136q-241 0 -400 130t-159 507v512q0 365 88 627h251q-108 -326 -108 -616v-512q0 -301 87.5 -392t246.5 -91q174 0 229.5 97.5t55.5 247.5v134q-3 299 -190 299h-168v171h143
q175 -1 175 189q0 145 -132 225.5t-131 247.5h249q0 -108 126.5 -199t125.5 -269z" />
    <glyph glyph-name="uni1CAB" unicode="&#x1cab;" horiz-adv-x="1295" 
d="M936 490v477q-97 103 -271 103q-310 0 -310 -372v-187q0 -400 308 -401q273 0 273 380zM1165 490q0 -545 -502 -545q-548 0 -548 555v181q0 554 522 554q178 0 298 -81v566h230v-1230z" />
    <glyph glyph-name="uni1CAC" unicode="&#x1cac;" horiz-adv-x="1296" 
d="M360 490q0 -378 274 -381q306 3 306 402v187q0 351 -308 351q-180 0 -272 -103v-456zM360 1135q109 80 300 80q521 0 521 -534v-181q0 -555 -547 -555q-504 0 -503 565v870q0 360 346 360q175 0 258 -140q89 140 271 140h174v-210l-213 44q-131 2 -130 -100v-113h-199
v113q0 100 -136 100q-142 0 -142 -126v-313z" />
    <glyph glyph-name="uni1CAD" unicode="&#x1cad;" horiz-adv-x="1351" 
d="M1286 1580v-175h-147q23 -600 26 -916q1 -544 -511 -544q-539 0 -539 510q0 200 82 343h253q-95 -146 -95 -342q0 -345 299 -345q293 0 281 368q-5 303 -25 926h-265q-196 0 -196 -131q0 -141 193 -141h135v-173h-142q-427 0 -427 309q0 311 431 311h265l-5 140h231
l8 -140h148z" />
    <glyph glyph-name="uni1CAE" unicode="&#x1cae;" horiz-adv-x="1295" 
d="M130 1720h230v-566q129 81 297 81q523 0 523 -554v-181q0 -555 -549 -555q-501 0 -501 555v1220zM360 487q0 -377 271 -377q308 1 308 401v187q0 372 -310 372q-164 0 -269 -101v-482z" />
    <glyph glyph-name="uni1CAF" unicode="&#x1caf;" horiz-adv-x="1280" 
d="M119 1345v205l368 -30l-8 201h234l-22 -214l354 -10v-205l-370 30l-4 -196q494 -203 494 -626q0 -555 -516 -555q-534 0 -534 530q1 132 73 295h246q-78 -175 -79 -295q1 -365 288 -365q282 0 282 395q0 380 -462 499l17 331z" />
    <glyph glyph-name="uni1CB0" unicode="&#x1cb0;" horiz-adv-x="1265" 
d="M1150 416q0 -471 -529 -471q-521 0 -521 494q0 126 46 236h244q-50 -130 -50 -236q7 -329 281 -329q289 0 289 304q0 196 -153 196h-187v188h165q153 0 153 138q0 147 -153 148h-157v189h157q135 0 135 149q-2 148 -154 148l-363 -13v183h366q390 0 390 -318
q0 -151 -179 -243q200 -71 200 -252q1 -155 -141 -230q161 -120 161 -281z" />
    <glyph glyph-name="uni1CB1" unicode="&#x1cb1;" horiz-adv-x="1296" 
d="M657 -56q-527 0 -527 511v1120h229v-1120q0 -346 299 -346q282 0 282 291q0 235 -119 237h-169v185h159q103 0 108 143q-5 128 -133 128h-156v191h156q106 1 106 148q-2 133 -137 133h-146v175h159q373 0 373 -308q-4 -147 -139 -234q158 -67 159 -236q-1 -170 -149 -236
q169 -90 169 -326q0 -456 -524 -456z" />
    <glyph glyph-name="uni1CB2" unicode="&#x1cb2;" horiz-adv-x="1281" 
d="M1166 107v-171q-288 26 -514 136q-229 -110 -537 -136v171q207 18 359 73l-59 46q-300 251 -300 648v295q0 571 522 571q529 1 529 -570v-291q0 -416 -287 -660l-51 -41q146 -53 338 -71zM744 346q191 201 191 449v370q0 410 -298 410q-292 0 -292 -400v-377
q0 -251 204 -451l100 -81z" />
    <glyph glyph-name="uni1CB3" unicode="&#x1cb3;" horiz-adv-x="1282" 
d="M1166 484q1 -538 -533 -538q-517 0 -517 528q-1 179 90 325h249q-100 -182 -100 -325q1 -366 285 -366q286 0 286 373v94q-1 353 -256 353h-148v172h134q229 -3 239 465h-515v-262h-235v427h991q0 -636 -233 -715q263 -129 263 -425v-106z" />
    <glyph glyph-name="uni1CB4" unicode="&#x1cb4;" horiz-adv-x="1280" 
d="M1165 472q0 -527 -532 -527q-517 0 -517 529q-1 166 90 324h250q-100 -194 -100 -324q1 -364 284 -364q286 0 284 371v112q-1 288 -201 288h-206v181h198q209 -1 210 418q-156 -109 -336 -109q-474 -2 -474 350h241q0 -177 233 -177q218 0 375 176h200v-205
q0 -409 -243 -540q243 -110 244 -405v-98z" />
    <glyph glyph-name="uni1CB5" unicode="&#x1cb5;" horiz-adv-x="1319" 
d="M1243 1115v-171h-133v-163h134v-171h-134v-250q0 -416 -492 -416q-503 0 -503 409q0 428 488 428h280v163h-280q-488 0 -488 398q0 397 503 397q492 0 492 -404v-220h133zM354 353q1 -243 270 -243q259 -1 259 246v254h-280q-247 0 -249 -257zM883 1339q0 235 -258 235
q-271 0 -271 -232q2 -227 249 -227h280v224z" />
    <glyph glyph-name="uni1CB6" unicode="&#x1cb6;" horiz-adv-x="1849" 
d="M1499 968v241q0 204 -60 284t-169 80q-247 0 -245 -307v-394q0 -314 245 -315q229 0 229 411zM1734 963q0 -572 -471 -572q-94 0 -246 91v-115q0 -421 -497 -421v170q281 0 281 251v899q0 307 -220 307q-96 0 -161 -80.5t-65 -283.5v-184q0 -423 267 -423v-173
q-506 0 -507 596v214q0 269 146.5 384t319.5 116q210 0 334 -167q126 167 355 167q269 -1 366.5 -150.5t97.5 -349.5v-276z" />
    <glyph glyph-name="uni10FE" unicode="&#x10fe;" 
d="M280 527q0 -417 240 -417q238 0 238 417q0 356 -236 477q-242 -122 -242 -477zM141 1378q223 -75 381 -282q145 209 370 282v-204q-145 0 -227 -115q275 -179 273 -529q0 -560 -416 -560q-422 0 -422 560q0 351 262 529q-70 115 -221 115v204z" />
    <glyph glyph-name="uni10FF" unicode="&#x10ff;" horiz-adv-x="1087" 
d="M544 -30q-444 0 -444 590q0 560 444 560q443 0 443 -560q0 -590 -443 -590zM544 110q263 0 263 449q0 421 -263 421q-264 0 -264 -421q0 -449 264 -449z" />
    <glyph glyph-name="uni10FD" unicode="&#x10fd;" horiz-adv-x="1042" 
d="M760 1348h-177q57 227 -128 227q-132 0 -133 -166q0 -190 310 -396t310 -567q0 -476 -409 -476q-433 0 -433 459q0 200 77 338h184q-81 -150 -81 -343q0 -314 253 -314q227 1 227 340q0 317 -310 511.5t-309 456.5q0 297 314 297q367 0 305 -367z" />
    <glyph glyph-name="uni10C7" unicode="&#x10c7;" horiz-adv-x="1410" 
d="M110 565q0 367 384 524.5t386 341.5q-2 125 -127 125q-145 0 -146 -142h-194q0 142 97.5 221.5t242.5 79.5q125 0 222.5 -79.5t97.5 -208.5q0 -246 -387 -412t-385 -450q0 -204 99.5 -319.5t310.5 -115.5q168 0 283 107.5t115 335.5q0 159 -129 296l137 131
q183 -195 182 -425q0 -291 -171 -448t-414 -157q-244 0 -424 157t-180 438z" />
    <glyph glyph-name="uni10CD" unicode="&#x10cd;" horiz-adv-x="1079" 
d="M103 1702h873v-154l-704 -1348h727v-170h-919v154l694 1348h-671v170z" />
    <glyph glyph-name="uni1CB7" unicode="&#x1cb7;" horiz-adv-x="1280" 
d="M1165 466q0 -520 -514 -520q-536 0 -536 520q0 396 347.5 560t347.5 345q0 204 -184 204q-168 0 -170 -189q0 -45 20 -129h-241q-20 71 -20 115q0 368 411 368q420 0 423 -349q0 -282 -347 -442t-347 -472q0 -367 301 -367q269 0 269 362q0 167 -126 350h251
q115 -180 115 -356z" />
    <glyph glyph-name="uni1CB8" unicode="&#x1cb8;" horiz-adv-x="1295" 
d="M360 1723v-648q109 -132 298 -131q245 -1 245 360q0 185 -206 419h287q162 -211 162 -430q0 -512 -496 -509q-181 0 -290 91v-411q1 -353 271 -353q309 0 307 339q0 100 -65 235h254q53 -121 53 -235q0 -505 -562 -505q-488 0 -488 524v1254h230z" />
    <glyph glyph-name="uni1CB9" unicode="&#x1cb9;" horiz-adv-x="1348" 
d="M356 1046q0 -423 310 -423q326 0 326 417v75q0 450 -321 450q-315 0 -315 -450v-69zM115 1038v66q0 636 561 636q555 0 555 -620v-102q2 -550 -543 -570h-75q-84 -85 -84 -166q-1 -174 191 -174q181 0 181 162v48h225v-47q0 -328 -403 -328q-418 0 -418 322
q0 111 114 225q-304 123 -304 548z" />
    <glyph glyph-name="uni1CBE" unicode="&#x1cbe;" horiz-adv-x="1281" 
d="M1166 1579q-192 -19 -338 -72l51 -41q287 -243 287 -659v-291q0 -571 -529 -570q-522 0 -522 571v295q0 397 300 647l59 47q-152 54 -359 73v171q308 -26 537 -137q226 111 514 137v-171zM549 1339q-204 -200 -204 -451v-367q0 -400 292 -400q298 0 298 410v360
q0 248 -191 448l-95 80z" />
    <glyph glyph-name="uni1CBF" unicode="&#x1cbf;" horiz-adv-x="1291" 
d="M929 543v601q0 420 -271 420q-298 0 -298 -420v-601q0 -424 298 -424q271 0 271 424zM1161 541q0 -596 -503 -596q-528 0 -528 598v601q0 596 528 596q503 0 503 -596v-603z" />
    <glyph glyph-name="uni1CBD" unicode="&#x1cbd;" horiz-adv-x="1280" 
d="M115 466q0 176 115 356h251q-126 -183 -126 -350q0 -362 269 -362q301 0 301 357q0 312 -367 477t-367 447q3 349 413 349q411 0 411 -368q0 -44 -20 -115h-241q20 84 20 129q-2 189 -170 189q-174 0 -174 -204q0 -181 367.5 -350t367.5 -565q0 -512 -536 -512
q-514 0 -514 522z" />
    <glyph glyph-name="uni1CBA" unicode="&#x1cba;" horiz-adv-x="1291" 
d="M100 144l342 121q-312 110 -312 598v281q0 596 528 596q503 0 503 -596h-232q0 430 -271 430q-298 0 -298 -430v-281q0 -624 607 -411l183 65v-231l-1050 -373v231z" />
    <glyph glyph-name="uni2D2D" unicode="&#x2d2d;" horiz-adv-x="1357" 
d="M1051 120q-456 -123 -697 -127q-274 7 -38 276l473 543q153 174 -17 178q-195 0 -519 -128l53 142q316 115 621 115q350 0 117 -276l-477 -537q-154 -186 0 -186q209 0 508 126zM379 846h-190l37 273h192zM1118 -1h-190l37 273h192z" />
    <glyph glyph-name="uni2D27" unicode="&#x2d27;" horiz-adv-x="1208" 
d="M876 752q43 239 -58 238q-173 0 -379 -75l-15 -101h-187l43 305h188l-14 -93q282 93 455 93q219 0 182 -256l-69 -346q-36 -228 -395.5 -265.5t-357.5 -306.5q1 -287 314 -287q315 0 315 200v80h187v-89q-5 -334 -484 -331q-521 -3 -521 439q1 325 366 373t388 195z" />
    <glyph glyph-name="uni20BE" unicode="&#x20be;" horiz-adv-x="1996" 
d="M1192 1488h-165v-582l-177 -75v634q-84 -41 -143 -105.5t-96.5 -144t-55 -171t-17.5 -186.5q0 -84 23 -166t63.5 -156t95.5 -137t120 -109t137 -72t146 -26h637l-131 -192h-1316l101 192h268q-192 134 -287 302t-95 360q0 152 40 277t112.5 222.5t174 167.5t223.5 113v86
l177 72v-136h165v64l178 72v-157q106 -37 193.5 -105t154 -157t112 -195t66.5 -218l-197 -171q0 103 -21 203t-62.5 188t-103 159.5t-142.5 117.5v-551l-178 -75v657z" />
    <glyph glyph-name="paragraph" unicode="&#xb6;" horiz-adv-x="1303" 
d="M633 1717h448v-1944h-141v1802h-190v-1802h-142v973q-215 20 -332.5 147t-117.5 339q0 218 130 351.5t345 133.5z" />
    <glyph glyph-name="ellipsis" unicode="&#x2026;" horiz-adv-x="2048" 
d="M918 254h212v-254h-212v254zM1599 254h213v-254h-213v254zM236 254h213v-254h-213v254z" />
    <glyph glyph-name="uni2116" unicode="&#x2116;" horiz-adv-x="2130" 
d="M102 0v188q143 0 143 118v1346h265l646 -1382v1076q0 141 77 223.5t258 82.5v-188q-143 0 -143 -118v-1346h-266l-631 1382v-1076q0 -141 -83.5 -223.5t-265.5 -82.5zM1504 689q0 152 70 257.5t170 105.5t170.5 -105.5t70.5 -257.5q0 -153 -70.5 -258.5t-170.5 -105.5
t-170 105.5t-70 258.5zM1640 689q0 -87 27.5 -144t76.5 -57t76.5 57t27.5 144q0 85 -27.5 142t-76.5 57t-76.5 -57t-27.5 -142zM1504 0v137h481v-137h-481z" />
    <glyph glyph-name="Euro" unicode="&#x20ac;" horiz-adv-x="1303" 
d="M1167 1537v-237q-90 117 -174 167t-186 50q-156 0 -256.5 -111.5t-131.5 -318.5h573l-55 -137h-534q-2 -27 -2.5 -52.5t-0.5 -64.5q0 -36 0.5 -62t2.5 -52h443l-56 -137h-371q31 -208 131.5 -320.5t256.5 -112.5q102 0 186 50t174 167v-235q-88 -80 -180 -120t-188 -40
q-235 0 -389 161.5t-193 449.5h-210l55 137h138q0 25 -0.5 51.5t-0.5 62.5q0 39 0.5 65t0.5 52h-193l55 137h155q39 285 193.5 446.5t388.5 161.5q98 0 190 -39.5t178 -118.5z" />
    <glyph glyph-name="section" unicode="&#xa7;" horiz-adv-x="1181" 
d="M433 1045q-72 -52 -108.5 -101t-36.5 -100q0 -83 80.5 -156.5t369.5 -223.5q73 51 109 101t36 100q0 84 -83 158.5t-367 221.5zM953 1625v-182q-95 43 -177.5 64.5t-148.5 21.5q-112 0 -174.5 -44t-62.5 -122q0 -100 238 -226q31 -16 47 -25q243 -132 319 -216.5
t76 -196.5q0 -99 -53 -176t-161 -136q72 -57 105 -116.5t33 -131.5q0 -156 -118 -248.5t-318 -92.5q-84 0 -173.5 16t-191.5 48v181q101 -43 187 -64.5t152 -21.5q119 0 184.5 46t65.5 130q0 113 -257 248l-29 15q-247 133 -321 217t-74 197q0 100 54 179t159 133
q-68 48 -102.5 110t-34.5 138q0 143 116 230.5t307 87.5q86 0 174 -16t179 -47z" />
    <glyph glyph-name="guillemotleft" unicode="&#xab;" horiz-adv-x="1253" 
d="M1061 1159v-191l-301 -268l301 -268v-191l-469 418v82zM627 1159v-191l-301 -268l301 -268v-191l-469 418v82z" />
    <glyph glyph-name="guillemotright" unicode="&#xbb;" horiz-adv-x="1253" 
d="M193 1159l469 -418v-82l-469 -418v191l301 268l-301 268v191zM627 1159l469 -418v-82l-469 -418v191l301 268l-301 268v191z" />
    <glyph glyph-name="guilsinglleft" unicode="&#x2039;" horiz-adv-x="819" 
d="M627 1159v-191l-301 -268l301 -268v-191l-469 418v82z" />
    <glyph glyph-name="guilsinglright" unicode="&#x203a;" horiz-adv-x="819" 
d="M193 1159l469 -418v-82l-469 -418v191l301 268l-301 268v191z" />
    <glyph glyph-name="periodcentered" unicode="&#xb7;" horiz-adv-x="651" 
d="M219 838h211v-254h-211v254z" />
    </font>
</defs>
</svg>
